<svg xmlns="http://www.w3.org/2000/svg" width="198" height="198" viewBox="0 0 198 198">
  <g id="address" transform="translate(-1133.072 -472.072)">
    <g id="Group_4" data-name="Group 4" transform="translate(1133 472)">
      <circle id="Ellipse_1" data-name="Ellipse 1" cx="99" cy="99" r="99" transform="translate(0.073 0.072)" fill="#222744"/>
    </g>
    <g id="Group_6" data-name="Group 6" transform="translate(1181.786 520.785)">
      <path id="Path_12" data-name="Path 12" d="M319.463,316c2.124.388,4.293.614,6.365,1.191a30.173,30.173,0,0,1,19.739,16.142c5.258,10.619,4.676,21.156-1.548,31.248-4.67,7.572-9.541,15.021-14.321,22.526-.191.3-.371.6-.66,1.077H330.2c5.192,0,10.384.015,15.575-.013a2.755,2.755,0,0,1,2.366,1.126q9.569,12.1,19.168,24.168c.241.3.45.632.675.949v2.562H267v-2.562L279.07,399.1c2.566-3.248,5.163-6.471,7.709-9.735a2.907,2.907,0,0,1,2.53-1.2c5.126.035,10.252.016,15.378.016h1.252c-.25-.411-.422-.707-.606-1-4.954-7.784-9.974-15.525-14.844-23.361a31.542,31.542,0,0,1,24.459-47.691,3.822,3.822,0,0,0,.568-.137Zm-2,82.873c.193-.263.295-.388.381-.525,7.763-12.185,15.74-24.243,23.217-36.6,5.97-9.865,5.58-20.084-.79-29.653a27.552,27.552,0,0,0-46.306,29.842c6.485,10.389,13.138,20.673,19.718,31C314.92,394.882,316.155,396.816,317.467,398.873Zm27.455,14.115c-2.229-2.806-4.338-5.479-6.488-8.125a1.372,1.372,0,0,0-.956-.3q-20.013-.021-40.025.011a1.68,1.68,0,0,0-1.126.555c-1.188,1.4-2.314,2.86-3.457,4.3-.909,1.145-1.812,2.3-2.8,3.555Zm-61.9-12.52c.168.081.225.13.276.131,3.678.006,7.355.022,11.033-.014a1.467,1.467,0,0,0,.931-.551c1.173-1.416,2.3-2.866,3.447-4.306.908-1.145,1.811-2.293,2.839-3.6-4.011,0-7.806-.007-11.607.017a.994.994,0,0,0-.616.4c-2.091,2.611-4.171,5.236-6.3,7.919Zm69.032.14c-2.256-2.839-4.346-5.495-6.481-8.113a1.475,1.475,0,0,0-1.027-.351c-3.416-.026-6.83-.017-10.248-.012-.238,0-.477.047-.832.083,2.19,2.753,4.289,5.4,6.406,8.031a.962.962,0,0,0,.642.345c3.768.022,7.541.016,11.54.016Zm-79.007,12.425c4,0,7.77.012,11.537-.025a1.374,1.374,0,0,0,.83-.558c1.612-1.99,3.2-4,4.791-6,.458-.578.907-1.163,1.472-1.888-3.978,0-7.743-.006-11.51.015a.961.961,0,0,0-.643.341C277.411,407.543,275.312,410.193,273.052,413.032Zm88.865,0c-2.259-2.843-4.367-5.517-6.514-8.158a1.367,1.367,0,0,0-.95-.309c-2.824-.023-5.649-.013-8.474-.013h-2.716c2.28,2.869,4.414,5.562,6.572,8.237a1,1,0,0,0,.7.233c3.714.015,7.424.01,11.39.01ZM299.938,400.55H313.8c-.158-.281-.256-.477-.375-.66q-2.271-3.57-4.548-7.136a1.736,1.736,0,0,0-2.646-.144c-1.441,1.789-2.865,3.592-4.292,5.391-.638.813-1.276,1.631-2,2.55Zm21.186,0h13.925c-2.228-2.8-4.347-5.5-6.508-8.17a1.851,1.851,0,0,0-2.4.3c-.87,1.351-1.726,2.709-2.591,4.064-.784,1.231-1.57,2.463-2.427,3.807Z" transform="translate(-267 -315.999)" fill="#fff"/>
      <path id="Path_13" data-name="Path 13" d="M442.73,415.454a19.719,19.719,0,1,1,19.724-19.661A19.718,19.718,0,0,1,442.73,415.454Zm15.779-19.725a15.775,15.775,0,1,0-15.815,15.781,15.775,15.775,0,0,0,15.815-15.781Z" transform="translate(-392.246 -364.178)" fill="#fff"/>
      <path id="Path_14" data-name="Path 14" d="M524.739,610.943a8.784,8.784,0,0,1-.514,1.164q-3.411,5.7-6.853,11.389a2.117,2.117,0,0,1-2.05,1.276,1.693,1.693,0,0,1-1.651-1.319,2.764,2.764,0,0,1,.23-1.763c2.327-3.963,4.707-7.892,7.1-11.816a1.92,1.92,0,0,1,2.342-.981,2.062,2.062,0,0,1,1.4,2.05Z" transform="translate(-464.981 -551.039)" fill="#fff"/>
      <path id="Path_15" data-name="Path 15" d="M575.077,576.078a1.957,1.957,0,1,1-2,1.915A2.019,2.019,0,0,1,575.077,576.078Z" transform="translate(-512.712 -524.783)" fill="#fff"/>
    </g>
  </g>
</svg>
