<svg xmlns="http://www.w3.org/2000/svg" width="198" height="198" viewBox="0 0 198 198">
  <g id="call" transform="translate(-791.762 -471.761)">
    <g id="call-2" data-name="call" transform="translate(791.76 471.761)">
      <circle id="Ellipse_1" data-name="Ellipse 1" cx="99" cy="99" r="99" transform="translate(0.001 0)" fill="#222744"/>
    </g>
    <g id="Group_5" data-name="Group 5" transform="translate(840.62 520.619)">
      <path id="Path_9" data-name="Path 9" d="M1476.935,632.51c-1.73-.292-3.477-.513-5.188-.888-6.5-1.429-12.454-4.237-18.224-7.457a97.215,97.215,0,0,1-23.948-18.784c-8.519-9.161-15.566-19.3-20-31.09a40.782,40.782,0,0,1-2.926-13.318c-.124-4.663,1.048-8.862,4.388-12.268,2.651-2.7,5.209-5.525,8.062-8,4.41-3.83,9.211-3.8,13.462.185,4.5,4.218,8.818,8.641,13.022,13.157a8.927,8.927,0,0,1,.045,12.154c-2.223,2.517-4.677,4.829-7.035,7.23-.205.209-.438.39-.823.732a68.36,68.36,0,0,0,26.981,26.937c1.941-1.964,3.769-3.825,5.609-5.674a14.124,14.124,0,0,1,5.076-3.746c3.4-1.224,6.636-.817,9.229,1.646q7.061,6.712,13.755,13.806a9.014,9.014,0,0,1,.245,12.037c-2.878,3.326-6.01,6.447-9.177,9.5a14.057,14.057,0,0,1-8.178,3.657,4.51,4.51,0,0,0-.649.183Zm1.4-5.7a10.8,10.8,0,0,0,8.4-3.309c2.122-2.217,4.291-4.39,6.436-6.586.273-.28.534-.574.779-.879,1.512-1.884,1.529-3.782-.11-5.56-1.726-1.871-3.56-3.642-5.358-5.447-2.328-2.336-4.645-4.686-7.009-6.985a3.736,3.736,0,0,0-5.513-.145c-.348.3-.674.622-.994.945-2.245,2.237-4.47,4.49-6.729,6.711a4.289,4.289,0,0,1-5.373.891c-1.367-.691-2.74-1.384-4.055-2.17a70.307,70.307,0,0,1-15.694-13.031c-4.1-4.461-7.845-9.179-10.371-14.754-1.336-2.947-1.052-4.388,1.263-6.637,2.388-2.32,4.783-4.64,7.07-7.058,1.6-1.694,1.549-3.482.082-5.286a12.6,12.6,0,0,0-.86-.939q-5.535-5.551-11.076-11.094c-2.385-2.381-4.486-2.405-6.866-.058-2.279,2.245-4.6,4.459-6.762,6.814a12.7,12.7,0,0,0-2.489,3.8c-1.186,3.015-.842,6.176-.21,9.267a56.168,56.168,0,0,0,4.92,13.573,92.685,92.685,0,0,0,14.4,20.9,90.522,90.522,0,0,0,36.213,25,32.983,32.983,0,0,0,9.9,2.045Z" transform="translate(-1406.638 -532.214)" fill="#fff"/>
      <path id="Path_10" data-name="Path 10" d="M1653.035,561.555c-.024.022-.061.04-.07.067-.608,1.682-1.592,2.5-2.9,2.418-1.6-.1-2.536-1.018-2.892-2.927a48.317,48.317,0,0,0-29.4-36.038,96.058,96.058,0,0,0-9.83-2.885c-1.819-.5-2.853-1.837-2.5-3.471s1.844-2.448,3.708-2.107a53.341,53.341,0,0,1,21.725,9.152,54.23,54.23,0,0,1,21.965,34.553,5.827,5.827,0,0,0,.2.648Z" transform="translate(-1552.751 -516.537)" fill="#fff"/>
      <path id="Path_11" data-name="Path 11" d="M1605.485,584.784a51.694,51.694,0,0,1,5.164,1.363q17.976,6.641,21.913,25.438a2.849,2.849,0,1,1-5.52,1.411,57.733,57.733,0,0,0-2.071-6.6c-3.944-8.634-10.647-13.9-19.958-15.822a2.837,2.837,0,0,1-2.592-2.619,2.783,2.783,0,0,1,1.955-2.934C1604.647,584.925,1604.947,584.894,1605.485,584.784Z" transform="translate(-1550.576 -566.713)" fill="#fff"/>
    </g>
  </g>
</svg>
