<svg xmlns="http://www.w3.org/2000/svg" width="198" height="198" viewBox="0 0 198 198">
  <g id="mail" transform="translate(-429.462 -450.462)">
    <circle id="Ellipse_1" data-name="Ellipse 1" cx="99" cy="99" r="99" transform="translate(429.462 450.462)" fill="#222744"/>
    <g id="Group_1" data-name="Group 1" transform="translate(461.712 493.967)">
      <path id="Path_1" data-name="Path 1" d="M448.5,512.785a3.539,3.539,0,0,1,3.572-1.87c4.639.082,9.281.024,13.922.031,1.927,0,3.134.988,3.176,2.56.044,1.624-1.2,2.692-3.175,2.695-4.641.008-9.283-.05-13.922.031a3.551,3.551,0,0,1-3.573-1.87Z" transform="translate(-448.5 -456.221)" fill="#fff"/>
      <path id="Path_2" data-name="Path 2" d="M448.5,434.022a3.481,3.481,0,0,1,3.563-1.867c2.354.1,4.717.016,7.075.031,1.862.012,3.07,1.1,3.029,2.691-.04,1.543-1.211,2.55-3.029,2.561-2.359.015-4.725-.075-7.076.031A3.48,3.48,0,0,1,448.5,435.6Z" transform="translate(-448.5 -405.072)" fill="#fff"/>
      <path id="Path_3" data-name="Path 3" d="M564.726,364.638c-.037.647-.082,1.06-.082,1.473q-.005,21.955,0,43.911c0,3.776,1.753,6.4,4.909,7.33a8.311,8.311,0,0,0,2.3.3q21.961.025,43.922.01c.338,0,.675-.04,1.3-.075-.461-.491-.761-.825-1.077-1.144l-17.27-17.481a8.287,8.287,0,0,1-.96-1.066,2.567,2.567,0,0,1,.334-3.353,2.594,2.594,0,0,1,3.235-.274,8.122,8.122,0,0,1,1.05.975q11.4,11.524,22.79,23.053c1.964,1.988,1.974,3.122.035,5.084q-20.075,20.314-40.153,40.625c-1.891,1.913-3.041,1.913-4.93,0q-30.645-31-61.287-62.005c-1.885-1.907-1.875-3.061.023-4.986q20.076-20.313,40.154-40.624c1.908-1.931,3.05-1.942,4.928-.043q11.12,11.246,22.234,22.5a6.859,6.859,0,0,1,1.012,1.189,2.579,2.579,0,0,1-3.7,3.436,9.177,9.177,0,0,1-1.046-.981q-8.272-8.364-16.539-16.732C565.586,365.429,565.24,365.123,564.726,364.638Zm-37.912,37.575,53.1,53.717V422.922h-1.5c-2.556-.014-5.116.068-7.666-.065a11.522,11.522,0,0,1-10.865-9.3c-.561-3.107-.321-6.364-.433-9.553-.021-.594,0-1.189,0-1.8Zm32.549-38.23-32.438,32.8h32.438Zm25.93,92.025,32.6-32.987h-32.6Z" transform="translate(-493.262 -354.935)" fill="#fff"/>
      <path id="Path_4" data-name="Path 4" d="M490.062,600.236c5.953,0,11.907-.025,17.86.031a3.273,3.273,0,0,1,2.25.725,3.862,3.862,0,0,1,.772,2.57,2.247,2.247,0,0,1-2.084,1.891,5.857,5.857,0,0,1-1.05.041H472.09c-.176,0-.35,0-.525,0a2.666,2.666,0,0,1-2.786-2.685,2.632,2.632,0,0,1,2.766-2.562c1.838-.034,3.675-.01,5.516-.01Z" transform="translate(-461.668 -514.215)" fill="#fff"/>
      <path id="Path_5" data-name="Path 5" d="M509.764,552.242c2.317,0,4.634-.013,6.95,0,1.827.014,2.941,1.027,2.941,2.625s-1.115,2.621-2.939,2.625q-7.016.024-14.031,0a2.646,2.646,0,1,1,0-5.25C505.044,552.229,507.4,552.242,509.764,552.242Z" transform="translate(-481.75 -483.053)" fill="#fff"/>
      <path id="Path_6" data-name="Path 6" d="M504.745,432.237c1.575,0,3.15-.023,4.72.007a2.629,2.629,0,1,1-.044,5.244q-4.721.036-9.442,0a2.577,2.577,0,0,1-2.85-2.579c-.022-1.605,1.087-2.644,2.9-2.669C501.6,432.219,503.171,432.236,504.745,432.237Z" transform="translate(-480.076 -405.127)" fill="#fff"/>
      <path id="Path_7" data-name="Path 7" d="M519.984,513.736a2.593,2.593,0,0,1-2.644,2.525,2.625,2.625,0,1,1,.067-5.25,2.594,2.594,0,0,1,2.578,2.725Z" transform="translate(-491.734 -456.285)" fill="#fff"/>
      <path id="Path_8" data-name="Path 8" d="M729.98,450.443a2.558,2.558,0,0,1-2.593-2.543,2.633,2.633,0,0,1,2.6-2.694,2.709,2.709,0,0,1,2.625,2.708,2.618,2.618,0,0,1-2.636,2.53Z" transform="translate(-630.56 -413.553)" fill="#fff"/>
    </g>
  </g>
</svg>
