<svg xmlns="http://www.w3.org/2000/svg" width="240" height="144" viewBox="0 0 240 144">
  <g id="amazonpay" transform="translate(-1305 -4430)">
    <path id="Rectangle_1021" data-name="Rectangle 1021" d="M0,0H240a0,0,0,0,1,0,0V144a0,0,0,0,1,0,0H20A20,20,0,0,1,0,124V0A0,0,0,0,1,0,0Z" transform="translate(1305 4430)" fill="#f8f8f8"/>
    <g id="amazon-pay-1" transform="translate(1306.86 4124.306)">
      <path id="Path_3383" data-name="Path 3383" d="M153.718,588.093c-4.937,3.651-12.117,5.6-18.311,5.6a33.2,33.2,0,0,1-22.38-8.527c-.449-.419-.06-.987.5-.658A44.463,44.463,0,0,0,153,586.927c.838-.335,1.526.568.719,1.173Z" transform="translate(-59.68 -192.893)"/>
      <path id="Path_3384" data-name="Path 3384" d="M168.352,504.889c-.628-.807-4.188-.389-5.775-.179-.479.06-.568-.359-.119-.658,2.848-2.01,7.479-1.406,8.018-.747s-.149,5.326-2.813,7.539c-.419.335-.807.151-.628-.3C167.633,509.048,168.987,505.726,168.352,504.889Zm-5.684-14.9v-1.943a.456.456,0,0,1,.477-.479h8.678a.5.5,0,0,1,.5.479v1.645c0,.27-.24.628-.658,1.226l-4.488,6.4a9.748,9.748,0,0,1,4.937,1.047.89.89,0,0,1,.449.747v2.066c0,.3-.3.628-.628.449a9.9,9.9,0,0,0-9.156.029.469.469,0,0,1-.628-.447v-1.975a2.24,2.24,0,0,1,.335-1.317l5.207-7.45h-4.523a.5.5,0,0,1-.5-.479Zm-31.626,12.059h-2.632a.541.541,0,0,1-.479-.449V488.074a.5.5,0,0,1,.5-.477h2.453a.488.488,0,0,1,.479.449v1.764h.06a3.611,3.611,0,0,1,6.88,0,3.749,3.749,0,0,1,3.65-2.513,3.711,3.711,0,0,1,3.052,1.5c.838,1.138.658,2.783.658,4.249V501.6a.5.5,0,0,1-.5.477h-2.6a.513.513,0,0,1-.479-.477v-7.18a18.031,18.031,0,0,0-.059-2.543,1.393,1.393,0,0,0-1.556-1.173,1.759,1.759,0,0,0-1.585,1.107,8.278,8.278,0,0,0-.24,2.6v7.18a.5.5,0,0,1-.5.479H135.5a.514.514,0,0,1-.477-.479v-7.175c0-1.5.24-3.741-1.617-3.741-1.885,0-1.824,2.154-1.824,3.741v7.18A.526.526,0,0,1,131.041,502.047Zm48.77-14.751c3.92,0,6.044,3.351,6.044,7.629,0,4.13-2.335,7.42-6.044,7.42-3.83,0-5.924-3.351-5.924-7.539C173.857,490.588,175.981,487.3,179.811,487.3Z" transform="translate(-72.25 -112.052)"/>
      <path id="Path_3385" data-name="Path 3385" d="M427.354,503.91c-1.945,0-2.064,2.662-2.064,4.309s-.03,5.175,2.034,5.175c2.036,0,2.154-2.848,2.154-4.577a13.117,13.117,0,0,0-.389-3.59A1.655,1.655,0,0,0,427.354,503.91Z" transform="translate(-319.793 -125.883)" fill="#fff"/>
      <path id="Path_3386" data-name="Path 3386" d="M290.525,501.435h-2.634a.514.514,0,0,1-.479-.479V487.4a.518.518,0,0,1,.5-.449h2.464a.513.513,0,0,1,.479.389v2.064h.06c.747-1.855,1.766-2.722,3.59-2.722a3.479,3.479,0,0,1,3.083,1.586c.687,1.077.687,2.9.687,4.218v8.527a.5.5,0,0,1-.5.419h-2.644a.545.545,0,0,1-.479-.419v-7.361c0-1.5.179-3.65-1.645-3.65a1.733,1.733,0,0,0-1.526,1.077,6.223,6.223,0,0,0-.419,2.573v7.3a.548.548,0,0,1-.538.479Zm-32.493-.03a.539.539,0,0,1-.628.059,6.559,6.559,0,0,1-1.526-1.764,5.243,5.243,0,0,1-4.339,1.915,3.748,3.748,0,0,1-3.949-4.1,4.488,4.488,0,0,1,2.813-4.309,18.658,18.658,0,0,1,4.966-.926v-.335a3.188,3.188,0,0,0-.335-1.915,1.782,1.782,0,0,0-1.466-.687,1.986,1.986,0,0,0-2.124,1.585c-.06.24-.209.479-.449.479l-2.543-.27a.462.462,0,0,1-.39-.538c.6-3.113,3.382-4.039,5.9-4.039a5.956,5.956,0,0,1,3.979,1.315c1.287,1.2,1.173,2.813,1.173,4.548v4.1a3.679,3.679,0,0,0,.987,2.453c.179.24.209.539,0,.689-.568.449-1.526,1.287-2.064,1.736Z" transform="translate(-171.863 -111.439)"/>
      <path id="Path_3387" data-name="Path 3387" d="M274.529,533.948a5.347,5.347,0,0,1-.479,2.813,2.118,2.118,0,0,1-1.824,1.2c-1.017,0-1.615-.777-1.615-1.915,0-2.243,2.01-2.662,3.919-2.662Z" transform="translate(-191.027 -150.416)" fill="#fff"/>
      <path id="Path_3388" data-name="Path 3388" d="M51.58,501.4a.539.539,0,0,1-.628.059,6.549,6.549,0,0,1-1.525-1.764,5.245,5.245,0,0,1-4.339,1.915,3.747,3.747,0,0,1-3.949-4.1,4.489,4.489,0,0,1,2.811-4.309,18.683,18.683,0,0,1,4.967-.926v-.335a3.188,3.188,0,0,0-.335-1.915,1.78,1.78,0,0,0-1.466-.687,1.987,1.987,0,0,0-2.124,1.585c-.059.24-.209.479-.449.479L42,491.137a.461.461,0,0,1-.389-.538c.6-3.113,3.381-4.039,5.9-4.039a5.959,5.959,0,0,1,3.979,1.315c1.287,1.2,1.173,2.813,1.173,4.548v4.1a3.672,3.672,0,0,0,.988,2.453c.179.24.209.539,0,.689-.57.449-1.526,1.287-2.066,1.736Z" transform="translate(0 -111.439)"/>
      <path id="Path_3389" data-name="Path 3389" d="M68.27,533.948a5.346,5.346,0,0,1-.479,2.813,2.125,2.125,0,0,1-1.824,1.2c-1.019,0-1.617-.777-1.617-1.915,0-2.243,2.01-2.662,3.92-2.662Z" transform="translate(-19.322 -150.416)" fill="#fff"/>
      <path id="Path_3390" data-name="Path 3390" d="M571.26,413.346l4.58,29.82a5.391,5.391,0,0,0,5.329,4.572h42.625a5.572,5.572,0,0,0,5.507-6.43l-4.565-29.335a5.194,5.194,0,0,0-5.76-4.356l-43.715,6.421a6.254,6.254,0,0,1-3.275-.4Z" transform="translate(-441.309 -45.691)" fill="#f90"/>
      <path id="Path_3391" data-name="Path 3391" d="M657.537,357.526l4.691,30.888a6.011,6.011,0,0,1-1.59,3.778,5.864,5.864,0,0,1-2.426,1.526q-2.471-16.328-4.942-32.65a4.476,4.476,0,0,0-5.229-3.733l-44.409,8.093a1.419,1.419,0,0,1,0-2.773l47.121-9.842a5.686,5.686,0,0,1,6.783,4.713Z" transform="translate(-467.342)" fill="#f90"/>
      <g id="Group_2333" data-name="Group 2333" transform="translate(139.847 375.432)">
        <path id="Path_3392" data-name="Path 3392" d="M657.337,489.72q2.451,6.066,4.927,12.131a1.137,1.137,0,0,1,.017.983c-.275.61-.493,1.251-.776,1.86a1.917,1.917,0,0,1-1.266,1.109,3.534,3.534,0,0,1-1.285.092c-.208-.017-.417-.067-.625-.084a.359.359,0,0,0-.434.4c-.008.292,0,.553,0,.826a.633.633,0,0,0,.616.74,8.884,8.884,0,0,0,1.409.167,3.5,3.5,0,0,0,3.294-1.784,10.933,10.933,0,0,0,.767-1.535q2.962-7.479,5.885-14.972A2.214,2.214,0,0,0,670,489.2c.034-.234-.075-.367-.308-.367-.551-.008-1.109,0-1.659,0a.63.63,0,0,0-.643.434c-.04.116-.09.224-.132.335l-2.9,8.336c-.208.6-.426,1.21-.642,1.843-.034-.092-.05-.142-.075-.2q-1.613-4.465-3.227-8.938c-.168-.476-.35-.943-.524-1.409a.553.553,0,0,0-.534-.4c-.633,0-1.266-.017-1.91,0-.208,0-.308.168-.266.375A3.567,3.567,0,0,0,657.337,489.72Zm-10.921,12.3a4.825,4.825,0,0,0,3.16.449,6.859,6.859,0,0,0,3.351-1.533.614.614,0,0,1,.134-.092c.05.317.092.616.149.916a.474.474,0,0,0,.451.434h1.359a.4.4,0,0,0,.4-.392,2.15,2.15,0,0,0,.008-.233v-8.837a6.415,6.415,0,0,0-.075-1.076,3.307,3.307,0,0,0-1.583-2.535,4.8,4.8,0,0,0-1.818-.591c-.3-.042-.6-.067-.9-.109-.325.008-.658.008-.992.008a2.046,2.046,0,0,0-.241.034,12.3,12.3,0,0,0-2.409.335c-.5.134-1.005.317-1.493.484a.6.6,0,0,0-.442.642c.008.275,0,.549,0,.824.008.4.176.5.568.409.65-.168,1.3-.35,1.958-.474a9.18,9.18,0,0,1,3.1-.117,2.016,2.016,0,0,1,1.4.7,2.312,2.312,0,0,1,.442,1.367c.025.692.017,1.384.025,2.076a.684.684,0,0,1-.017.117c-.042-.008-.075,0-.109-.008a15.094,15.094,0,0,0-2.667-.409,7.12,7.12,0,0,0-2.776.325,4.063,4.063,0,0,0-2.451,2.076,4.355,4.355,0,0,0-.325,2.56A3.421,3.421,0,0,0,646.415,502.018Zm.883-4.327a1.918,1.918,0,0,1,1.367-1.3,5.108,5.108,0,0,1,2.067-.184c.7.059,1.384.193,2.084.283.134.017.176.084.176.218-.008.4,0,.791,0,1.191s-.017.784-.008,1.173a.275.275,0,0,1-.126.25,6.351,6.351,0,0,1-3.118,1.243,2.848,2.848,0,0,1-1.4-.151,1.675,1.675,0,0,1-1.034-1.109A2.74,2.74,0,0,1,647.3,497.691Zm-16.549,9.946h1.759a.414.414,0,0,0,.417-.417V500.94c.091.075.141.116.183.157a5.853,5.853,0,0,0,5.086,1.285,5.062,5.062,0,0,0,3.651-2.91,8.516,8.516,0,0,0,.859-3.686,9.628,9.628,0,0,0-.67-4.151,4.911,4.911,0,0,0-3.66-3.076c-.266-.059-.541-.084-.816-.126h-.694l-.359.05a6.746,6.746,0,0,0-3.168,1.258c-.2.142-.384.292-.591.451a.394.394,0,0,1-.034-.117c-.034-.224-.067-.457-.109-.684a.559.559,0,0,0-.633-.549h-.958c-.575,0-.684.109-.684.684V507.22a.405.405,0,0,0,.42.417Zm2.168-12.206c0-1.173.008-2.334,0-3.51a.29.29,0,0,1,.141-.275,5.744,5.744,0,0,1,3.8-1.1,3.02,3.02,0,0,1,2.794,2.159,7.926,7.926,0,0,1,.407,2.751,8.221,8.221,0,0,1-.335,2.551,3.221,3.221,0,0,1-3.552,2.376,5.81,5.81,0,0,1-3.118-1.158.3.3,0,0,1-.141-.276c.01-1.174,0-2.342,0-3.518Z" transform="translate(-630.329 -488.42)" fill="#fff"/>
      </g>
    </g>
  </g>
</svg>
