<svg xmlns="http://www.w3.org/2000/svg" width="240" height="144" viewBox="0 0 240 144">
  <g id="axis" transform="translate(-995 -4645)">
    <path id="Rectangle_1023" data-name="Rectangle 1023" d="M0,0H240a0,0,0,0,1,0,0V144a0,0,0,0,1,0,0H20A20,20,0,0,1,0,124V0A0,0,0,0,1,0,0Z" transform="translate(995 4645)" fill="#f8f8f8"/>
    <g id="fc-logo-1" transform="translate(1002.06 4657.878)">
      <g id="Group_2335" data-name="Group 2335" transform="translate(31.94 29.122)">
        <path id="Path_3398" data-name="Path 3398" d="M61.763,45.541h.077c1.244-2.419,3.354-4.529,6.587-4.288l-.858,4.829c-3.379-.712-5.446,1.587-6.167,6.861l-1.141,7.813h-4.8l2.093-15.292c-.858-.163-2.153-.3-3.242-.386l.412-3.062a50.328,50.328,0,0,1,7.9-.334,25.379,25.379,0,0,1-.858,3.86m22.3,6.433H72.373c-.523,3.559.986,5.283,4.477,5.275a14.186,14.186,0,0,0,5.661-1.2L82.39,59.9a19.992,19.992,0,0,1-6.9,1.226c-6,0-8.911-3.019-7.985-9.735.8-5.824,4.554-10.129,10.206-10.138,5.515,0,7.419,3.782,6.767,8.508a16.3,16.3,0,0,1-.412,2.213m-6.947-7.11c-2.024,0-3.637,1.5-4.211,3.8H79.86c.386-2.384-.7-3.791-2.745-3.791M102.34,51.94H90.667c-.515,3.577.978,5.292,4.477,5.292a14.469,14.469,0,0,0,5.644-1.209l-.051,3.8a19.932,19.932,0,0,1-6.913,1.244c-6,0-8.92-3.019-8-9.726.815-5.815,4.571-10.112,10.249-10.129,5.5,0,7.4,3.791,6.758,8.508a14.53,14.53,0,0,1-.463,2.221m-6.939-7.119c-2.016,0-3.611,1.51-4.194,3.808h6.93c.4-2.384-.686-3.791-2.736-3.791m15.9,16.176c-5.24,0-8.114-2.745-7.222-9.22.8-5.952,4.511-10.524,11.15-10.532a12.865,12.865,0,0,1,3.791.54l-1.064,4.237a9.349,9.349,0,0,0-3.328-.678c-3.07,0-4.949,2.307-5.429,5.909-.446,3.268.5,5.489,3.714,5.481a8.962,8.962,0,0,0,3.825-.857l-.188,4.185a16.373,16.373,0,0,1-5.275.858" transform="translate(-35.124 -30.843)" fill="#f57450" fill-rule="evenodd"/>
        <path id="Path_3399" data-name="Path 3399" d="M110.69,34.309l.4-3.053a50.894,50.894,0,0,1,7.715-.377L117.752,39.1a22.719,22.719,0,0,1-.806,3.868v.043a7.239,7.239,0,0,1,6.3-3.577c4.031,0,4.91,2.745,4.491,6.081l-1.717,13.38h-4.531l1.6-12.188c.266-1.981-.1-3.165-1.8-3.173-2.322,0-4.458,2.856-4.894,6.184l-1.209,9.211h-4.555l3.12-24.238c-.806-.146-2.024-.292-3.064-.377M138.407,58.9a27.771,27.771,0,0,1,.6-3.251h-.04a6.958,6.958,0,0,1-6.127,3.645c-3.225,0-4.837-1.947-4.418-5.009.6-4.554,5.111-6.981,11.142-7.007l.129-1.029c.258-2-.508-3.036-3.072-3.036a12.411,12.411,0,0,0-5.434,1.518l.137-4.108a19.467,19.467,0,0,1,6.5-1.2c5.708,0,7,2.444,6.45,6.621l-1.177,9.091a30.235,30.235,0,0,0,3.056.377l-.4,3.062a44.807,44.807,0,0,1-7.353.36m.822-8.474c-4.837,0-6.071,1.51-6.272,3.036a1.674,1.674,0,0,0,1.846,2.041c2.233,0,4.031-2.316,4.378-4.623ZM153.725,43.6h.073c1.169-2.41,3.144-4.529,6.176-4.288l-.806,4.846q-4.789-1.081-5.8,6.861L152.363,58.8h-4.531l1.975-15.3c-.806-.154-2.032-.3-3.047-.386l.387-3.053a47.278,47.278,0,0,1,7.425-.36,27.723,27.723,0,0,1-.847,3.9M192.641,50H181.66c-.5,3.568.927,5.283,4.192,5.283a13.42,13.42,0,0,0,5.337-1.2l-.073,3.8a18.178,18.178,0,0,1-6.5,1.235c-5.643,0-8.376-3.01-7.522-9.717.758-5.806,4.305-10.095,9.618-10.095,5.168,0,6.966,3.774,6.353,8.5a17.062,17.062,0,0,1-.427,2.213m-6.538-7.1c-1.887,0-3.41,1.492-3.95,3.8h6.53c.371-2.376-.645-3.791-2.58-3.782M47.435,33.8a7.16,7.16,0,0,1,2.548.4l.984-4.726a12.329,12.329,0,0,0-3.354-.352c-4.878,0-7.812,2.153-9.021,6.861-.718,2.813-.726,3.937-2.62,3.988H34.31l-.572,4.477H37.9L32.48,55.785h3.975L31.94,65.22,44.259,51.609H39.623L47.548,43.2l.564-3.259H43.275l.242-1.9c.379-2.968,1.612-4.288,3.926-4.288M157.321,67.476l.806-3.954a12.77,12.77,0,0,0,4.732.763c3.539-.094,6.071-1.638,6.514-4.88l.121-.986a14.96,14.96,0,0,1,.54-2.762h-.073a6.592,6.592,0,0,1-5.692,3.525c-4.257,0-6.159-3.088-5.41-8.877.806-6.424,4.837-10.884,11.045-10.91a34.34,34.34,0,0,1,6.45.575L173.88,59.4c-1.862,11.013-13.133,9.091-16.535,8.079M171.357,43.6a8.232,8.232,0,0,0-2.338-.274c-2.6,0-4.676,1.715-5.3,6.45-.443,3.559.282,5.36,2.354,5.352,2.419,0,4.184-2.968,4.628-6.3Z" transform="translate(-31.94 -29.122)" fill="#f57450" fill-rule="evenodd"/>
      </g>
      <path id="Path_3400" data-name="Path 3400" d="M92.91,89.414V81.42h1.329v3.148a2.573,2.573,0,0,1,.746-.549,2.024,2.024,0,0,1,.969-.214,1.87,1.87,0,0,1,.858.189,1.716,1.716,0,0,1,.643.54,2.573,2.573,0,0,1,.42.858,4.289,4.289,0,0,1,.146,1.2,3.8,3.8,0,0,1-.163,1.149,2.83,2.83,0,0,1-.48.918,2.2,2.2,0,0,1-.746.6,2.161,2.161,0,0,1-.978.223,1.913,1.913,0,0,1-.463-.051,1.57,1.57,0,0,1-.386-.146,1.63,1.63,0,0,1-.317-.223,2.274,2.274,0,0,1-.283-.292l-.06.369a.335.335,0,0,1-.111.2.317.317,0,0,1-.214.06Zm2.573-4.571a1.4,1.4,0,0,0-.7.172,2.11,2.11,0,0,0-.549.5v2.47a1.364,1.364,0,0,0,.489.395,1.638,1.638,0,0,0,.583.111,1.252,1.252,0,0,0,.54-.12.986.986,0,0,0,.412-.343,1.715,1.715,0,0,0,.266-.583,3.353,3.353,0,0,0,.086-.858,3.7,3.7,0,0,0-.077-.858,1.561,1.561,0,0,0-.223-.549.926.926,0,0,0-.352-.309,1.158,1.158,0,0,0-.463-.026Zm5.326,6.089a.515.515,0,0,1-.154.214.429.429,0,0,1-.283.069h-.995l1.038-2.2-2.239-5.146h1.166a.377.377,0,0,1,.249.077.858.858,0,0,1,.129.172l1.175,2.865a1.716,1.716,0,0,1,.1.292l.077.3a3.077,3.077,0,0,1,.094-.3.923.923,0,0,1,.111-.3l1.141-2.83a.352.352,0,0,1,.146-.172.334.334,0,0,1,.223-.077h1.064Z" transform="translate(-12.027 -10.272)" fill="#941c4e"/>
      <path id="Path_3401" data-name="Path 3401" d="M211.917,91.154V82.106h1.707v3.748l3.765-3.748h2.093l-4.16,4.022,4.649,5.026h-2.2l-4.143-4.623v4.623Zm-10.627,0V81.72l6.664,5.523c.18.154.369.326.549.5s.386.377.592.609V82.106h1.578V91.54l-6.8-5.626c-.18-.154-.36-.317-.523-.48s-.335-.352-.489-.532v6.287Zm-2.65,0-1.192-2.333H193.3l-1.218,2.333h-1.793l5.077-9.434,5.069,9.434ZM193.923,87.6h2.942l-1.072-2.067a4.778,4.778,0,0,1-.2-.455,5.578,5.578,0,0,1-.2-.575c-.06.206-.12.386-.189.557a4.894,4.894,0,0,1-.2.472L193.94,87.6Zm-10.318,3.551V82.106h2.65a9.605,9.605,0,0,1,1.715.112,2.573,2.573,0,0,1,.918.343,2.2,2.2,0,0,1,.755.806,2.29,2.29,0,0,1,.266,1.106,1.878,1.878,0,0,1-.386,1.209,2.041,2.041,0,0,1-1.124.678,2.307,2.307,0,0,1,1.449.72,2.221,2.221,0,0,1,.523,1.5,2.573,2.573,0,0,1-.223,1.046,2.35,2.35,0,0,1-.635.858,2.444,2.444,0,0,1-1.064.532,10.293,10.293,0,0,1-2.144.154Zm1.715-1.235h.592a10.421,10.421,0,0,0,1.338-.06,2.007,2.007,0,0,0,.7-.214,1.3,1.3,0,0,0,.652-1.149,1.381,1.381,0,0,0-.206-.755,1.364,1.364,0,0,0-.592-.5,2.513,2.513,0,0,0-.557-.154,5.232,5.232,0,0,0-.858-.051h-1.106v2.882Zm0-3.988h.652a3.637,3.637,0,0,0,1.715-.292,1.029,1.029,0,0,0,.506-.969,1.141,1.141,0,0,0-.463-1.038,3.628,3.628,0,0,0-1.767-.3h-.652v2.573Zm-14.572,3.414,1.3-.549a1.647,1.647,0,0,0,.686.926,2.256,2.256,0,0,0,1.261.317,1.715,1.715,0,0,0,1.158-.369,1.209,1.209,0,0,0,.429-.969c0-.532-.489-1-1.467-1.424l-.317-.137a6.964,6.964,0,0,1-2.213-1.312,2.041,2.041,0,0,1-.557-1.449,2.187,2.187,0,0,1,.858-1.784,3.319,3.319,0,0,1,2.2-.686,4.066,4.066,0,0,1,1.861.386,2.136,2.136,0,0,1,1.038,1.106l-1.278.592a2.17,2.17,0,0,0-.669-.626,1.715,1.715,0,0,0-.858-.2,1.621,1.621,0,0,0-1.046.309,1,1,0,0,0-.395.858c0,.54.566,1.046,1.715,1.518l.206.086a6.192,6.192,0,0,1,2.05,1.166,2.076,2.076,0,0,1,.557,1.475,2.573,2.573,0,0,1-.9,2.041,3.705,3.705,0,0,1-2.436.755,3.851,3.851,0,0,1-2.11-.532,2.487,2.487,0,0,1-1.072-1.518Zm-2.993,1.81V82.106h1.63v9.048Zm-9.812,0,3.268-4.734-2.89-4.288h1.715l1.458,2.213c.077.12.223.36.429.72l.1.18c.077-.129.154-.266.249-.412s.189-.3.3-.472l1.535-2.23h1.672l-2.942,4.288,3.173,4.76H164.2l-1.715-2.573c-.189-.309-.352-.6-.515-.858-.077.146-.163.292-.249.437s-.189.3-.3.463l-1.758,2.573Zm-2.093,0-1.141-2.333h-3.988l-1.166,2.333H147.84l4.872-9.434,4.863,9.434Zm-4.52-3.551h2.8l-1-2.067c-.051-.129-.12-.283-.18-.455s-.129-.36-.2-.575c-.051.206-.112.386-.172.557s-.129.326-.189.472L151.356,87.6Z" transform="translate(-26.787 -10.572)" fill="#97144d"/>
      <path id="Path_3402" data-name="Path 3402" d="M108.83,98.164,123.5,73.12l4.52,7.573-9.777,17.351Zm14.786-9.529,9.04-.12,5.5,9.529h-9.289Z" transform="translate(-15.715 -8.833)" fill="#97144d" fill-rule="evenodd"/>
    </g>
  </g>
</svg>
