<svg id="BALL" xmlns="http://www.w3.org/2000/svg" width="164.606" height="164.649" viewBox="0 0 164.606 164.649">
  <g id="Group_2243" data-name="Group 2243">
    <path id="Path_3247" data-name="Path 3247" d="M4712.339,2410.074a82.27,82.27,0,1,1-82.27-82.281,85.926,85.926,0,0,1,22.125,2.964,81.893,81.893,0,0,1,60.146,79.317Z" transform="translate(-4547.766 -2327.793)" fill="#ed0303"/>
    <path id="Path_3248" data-name="Path 3248" d="M4704.667,2375.661c4.716,29.926-12.479,63.929-51.641,63.929-69.873,0-69.873-108.353,0-108.353.175,0,.328.022.486.022a82.535,82.535,0,1,0,51.155,44.4Z" transform="translate(-4547.681 -2327.793)" fill="#ed0303" opacity="0.5" style="mix-blend-mode: multiply;isolation: isolate"/>
    <path id="Path_3249" data-name="Path 3249" d="M4706.681,2380.411c8.347,38.277-12.78,84.088-63.524,84.088-87.143,0-87.143-135.128,0-135.128,1.277,0,2.473.12,3.712.18a82.566,82.566,0,1,0,59.813,50.86Z" transform="translate(-4547.681 -2327.793)" fill="#6a1b00" opacity="0.4"/>
    <g id="Group_2242" data-name="Group 2242" transform="translate(0 0)">
      <path id="Path_3250" data-name="Path 3250" d="M5123.055,2536.143a74.229,74.229,0,0,0,0-13.582c-.535-1.648-1.049-3.308-1.666-4.913A78.1,78.1,0,0,1,5123.055,2536.143Z" transform="translate(-4962.385 -2465.031)" fill="#6a1b00" opacity="0.4"/>
      <path id="Path_3251" data-name="Path 3251" d="M4635.748,2480.88a76.492,76.492,0,0,1-2.931-152.929c-.95-.032-1.877-.158-2.833-.158a82.306,82.306,0,1,0,82.3,82.3c0-.988-.108-1.954-.13-2.948A76.5,76.5,0,0,1,4635.748,2480.88Z" transform="translate(-4547.681 -2327.793)" fill="#6a1b00" opacity="0.5"/>
      <path id="Path_3252" data-name="Path 3252" d="M4899.246,2333.665c-.383-.082-.774-.1-1.156-.18-.437.011-.852.043-1.267.06C4897.625,2333.589,4898.428,2333.627,4899.246,2333.665Z" transform="translate(-4800.06 -2331.908)" fill="#6a1b00" opacity="0.4"/>
    </g>
    <path id="Path_3253" data-name="Path 3253" d="M4910.1,2392.323a42.811,42.811,0,1,1-56.2-53.835A82.789,82.789,0,0,1,4910.1,2392.323Z" transform="translate(-4749.473 -2335.523)" fill="#ed0303" style="mix-blend-mode: screen;isolation: isolate"/>
  </g>
</svg>
