<svg xmlns="http://www.w3.org/2000/svg" width="112.481" height="100.211" viewBox="0 0 112.481 100.211">
  <g id="customersupport" transform="translate(-3.161 1)">
    <path id="Rectangle_160" data-name="Rectangle 160" d="M5,0H65.549a10,10,0,0,1,10,10V69.33a5,5,0,0,1-5,5H18a18,18,0,0,1-18-18V5A5,5,0,0,1,5,0Z" transform="translate(40.093 24.881)" fill="#14183e"/>
    <g id="power-supply_1" data-name="power-supply 1" transform="translate(3.162 -1)">
      <g id="Group">
        <path id="Vector" d="M74.556,33.1a3.021,3.021,0,0,0-3.021-3.021H68.28a3.018,3.018,0,0,1-2.866-2.07,29.516,29.516,0,0,0-1.653-3.987,3.021,3.021,0,0,1,.56-3.495l2.3-2.3a3.021,3.021,0,0,0,0-4.272L60.606,7.931a3.021,3.021,0,0,0-4.272,0l-2.3,2.3a3.021,3.021,0,0,1-3.495.56,29.517,29.517,0,0,0-3.987-1.653,3.018,3.018,0,0,1-2.07-2.866V3.021A3.021,3.021,0,0,0,41.458,0H32.947a3.021,3.021,0,0,0-3.021,3.021V6.276a3.018,3.018,0,0,1-2.07,2.866,29.518,29.518,0,0,0-3.987,1.653,3.021,3.021,0,0,1-3.495-.56l-2.3-2.3a3.021,3.021,0,0,0-4.272,0L7.781,13.95a3.021,3.021,0,0,0,0,4.272l2.3,2.3a3.021,3.021,0,0,1,.56,3.495,29.518,29.518,0,0,0-1.653,3.987,3.018,3.018,0,0,1-1.773,1.865c-.341.133-.56.355-.942.355H3.021A3.021,3.021,0,0,0,0,33.248v8.21a3.021,3.021,0,0,0,3.021,3.021H6.276A3.161,3.161,0,0,1,9.142,46.7a29.526,29.526,0,0,0,1.653,3.987,3.021,3.021,0,0,1-.56,3.495l-2.153,2.3a3.021,3.021,0,0,0,0,4.272L13.8,66.474a3.021,3.021,0,0,0,4.272,0l2.3-2.3a3.021,3.021,0,0,1,3.495-.56,34.258,34.258,0,0,0,4.288,1.8,3.018,3.018,0,0,1,2.07,2.866v3.255a3.021,3.021,0,0,0,3.021,3.021h8.06a3.021,3.021,0,0,0,3.021-3.021V68.28c0-.382.222-.6.355-.942a3.018,3.018,0,0,1,1.865-1.773,29.519,29.519,0,0,0,3.987-1.653,3.021,3.021,0,0,1,3.495.56l2.3,2.3a3.021,3.021,0,0,0,4.272,0l6.018-6.018a3.021,3.021,0,0,0,0-4.272l-2.3-2.3a3.021,3.021,0,0,1-.56-3.495A29.518,29.518,0,0,0,65.414,46.7a3.018,3.018,0,0,1,2.866-2.07h3.255a3.021,3.021,0,0,0,3.021-3.021h0Z" transform="translate(0.15)" fill="#b6c4cf"/>
        <path id="Vector-2" data-name="Vector" d="M44.63,38.559v3.254a3.022,3.022,0,0,1-3.021,3.021H33.1a3.022,3.022,0,0,1-3.021-3.021V38.559a3.019,3.019,0,0,0-2.07-2.867A29.536,29.536,0,0,1,24.02,34.04a3.02,3.02,0,0,0-3.495.559l-2.3,2.3a3.022,3.022,0,0,1-4.273,0L7.931,30.885a3.025,3.025,0,0,1,0-4.273l2.3-2.3a3.02,3.02,0,0,0,.559-3.495,29.537,29.537,0,0,1-1.652-3.986,3.019,3.019,0,0,0-2.866-2.07H3.021A3.021,3.021,0,0,1,0,11.737V3.226A3.021,3.021,0,0,1,3.021.2H6.276A3.022,3.022,0,0,0,7.368,0c0,.188,0,.377,0,.567a36.9,36.9,0,0,0,36.9,36.9c.189,0,.379,0,.567,0h0A3.022,3.022,0,0,0,44.63,38.559Z" transform="translate(0 29.722)" fill="#9facba"/>
        <path id="Vector-3" data-name="Vector" d="M24.8,49.6A24.8,24.8,0,1,1,49.6,24.8,24.8,24.8,0,0,1,24.8,49.6Z" transform="translate(12.551 12.551)" fill="#9facba"/>
        <path id="Vector-4" data-name="Vector" d="M19.541,39.082A19.541,19.541,0,1,1,39.082,19.541,19.541,19.541,0,0,1,19.541,39.082Z" transform="translate(17.812 17.812)" fill="#f8f7f7"/>
      </g>
    </g>
  </g>
</svg>
