<svg xmlns="http://www.w3.org/2000/svg" width="30" height="30" viewBox="0 0 30 30">
  <g id="facebook" transform="translate(-27 -770)">
    <g id="Path_3368" data-name="Path 3368" transform="translate(27 770)" fill="#da0907">
      <path d="M 15 29.5 C 11.12691020965576 29.5 7.485640048980713 27.99173927307129 4.746950149536133 25.25304985046387 C 2.008260011672974 22.51436042785645 0.5 18.87309074401855 0.5 15 C 0.5 11.12691020965576 2.008260011672974 7.485640048980713 4.746950149536133 4.746950149536133 C 7.485640048980713 2.008260011672974 11.12691020965576 0.5 15 0.5 C 18.87309074401855 0.5 22.51436042785645 2.008260011672974 25.25304985046387 4.746950149536133 C 27.99173927307129 7.485640048980713 29.5 11.12691020965576 29.5 15 C 29.5 18.87309074401855 27.99173927307129 22.51436042785645 25.25304985046387 25.25304985046387 C 22.51436042785645 27.99173927307129 18.87309074401855 29.5 15 29.5 Z" stroke="none"/>
      <path d="M 15 1 C 11.26046943664551 1 7.744760513305664 2.456249237060547 5.100509643554688 5.100509643554688 C 2.456249237060547 7.744760513305664 1 11.26046943664551 1 15 C 1 18.73952865600586 2.456249237060547 22.25523948669434 5.100509643554688 24.89949035644531 C 7.744760513305664 27.54375076293945 11.26046943664551 29 15 29 C 18.73952865600586 29 22.25523948669434 27.54375076293945 24.89949035644531 24.89949035644531 C 27.54375076293945 22.25523948669434 29 18.73952865600586 29 15 C 29 11.26046943664551 27.54375076293945 7.744760513305664 24.89949035644531 5.100509643554688 C 22.25523948669434 2.456249237060547 18.73952865600586 1 15 1 M 15 0 C 23.28426933288574 0 30 6.715730667114258 30 15 C 30 23.28426933288574 23.28426933288574 30 15 30 C 6.715730667114258 30 0 23.28426933288574 0 15 C 0 6.715730667114258 6.715730667114258 0 15 0 Z" stroke="none" fill="#fff"/>
    </g>
    <path id="Vector" d="M5.389,15.67V8.534H7.846L8.211,5.74H5.389V3.96c0-.806.229-1.358,1.41-1.358H8.3V.111A20.251,20.251,0,0,0,6.1,0,3.4,3.4,0,0,0,2.441,3.684v2.05H0V8.528H2.446V15.67Z" transform="translate(38 777)" fill="#fff"/>
  </g>
</svg>
