<svg xmlns="http://www.w3.org/2000/svg" width="30" height="30" viewBox="0 0 30 30">
  <g id="insta" transform="translate(-27 -809)">
    <g id="Ellipse_39" data-name="Ellipse 39" transform="translate(27 809)" fill="#c50202" stroke="#fff" stroke-width="1">
      <circle cx="15" cy="15" r="15" stroke="none"/>
      <circle cx="15" cy="15" r="14.5" fill="none"/>
    </g>
    <path id="Vector" d="M7.054,3.436a3.62,3.62,0,1,0,3.62,3.62A3.615,3.615,0,0,0,7.054,3.436Zm0,5.973A2.353,2.353,0,1,1,9.407,7.056,2.358,2.358,0,0,1,7.054,9.409Zm3.769-6.965a.844.844,0,1,0,.324.064.844.844,0,0,0-.324-.064Zm3.288,4.612c0-.974.009-1.94-.046-2.913a4.2,4.2,0,0,0-1.139-2.958A4.191,4.191,0,0,0,9.968.046C8.994-.008,8.028,0,7.056,0S5.116-.008,4.143.046A4.2,4.2,0,0,0,1.185,1.185,4.191,4.191,0,0,0,.046,4.143C-.008,5.118,0,6.083,0,7.056S-.008,9,.046,9.968a4.2,4.2,0,0,0,1.139,2.958,4.191,4.191,0,0,0,2.958,1.139c.974.055,1.94.046,2.912.046s1.94.009,2.912-.046a4.2,4.2,0,0,0,2.958-1.139,4.191,4.191,0,0,0,1.139-2.958c.056-.973.046-1.938.046-2.913Zm-1.553,4.162a2.408,2.408,0,0,1-1.341,1.342,15.541,15.541,0,0,1-4.162.286,15.627,15.627,0,0,1-4.164-.284A2.408,2.408,0,0,1,1.549,11.22a15.633,15.633,0,0,1-.284-4.164,15.628,15.628,0,0,1,.284-4.164,2.243,2.243,0,0,1,.533-.808A2.282,2.282,0,0,1,2.89,1.55a15.627,15.627,0,0,1,4.164-.284,15.627,15.627,0,0,1,4.164.284,2.243,2.243,0,0,1,.808.533,2.258,2.258,0,0,1,.533.808,15.628,15.628,0,0,1,.284,4.164A15.542,15.542,0,0,1,12.558,11.218Z" transform="translate(35 817)" fill="#fff"/>
  </g>
</svg>
