<svg xmlns="http://www.w3.org/2000/svg" width="30" height="30" viewBox="0 0 30 30">
  <g id="Group_204" data-name="Group 204" transform="translate(-26 -898)">
    <g id="Ellipse_41" data-name="Ellipse 41" transform="translate(26 898)" fill="#da0907" stroke="#fff" stroke-width="1">
      <circle cx="15" cy="15" r="15" stroke="none"/>
      <circle cx="15" cy="15" r="14.5" fill="none"/>
    </g>
    <g id="Group_260" data-name="Group 260" transform="translate(35 907)">
      <path id="Vector" d="M3.072,1.536A1.536,1.536,0,1,1,1.536,0,1.536,1.536,0,0,1,3.072,1.536Z" fill="#fff"/>
      <path id="Vector-2" data-name="Vector" d="M4.311.211v8.52H6.957V4.517c0-1.112.209-2.189,1.588-2.189,1.36,0,1.376,1.271,1.376,2.259V8.732h2.647V4.059c0-2.3-.494-4.059-3.177-4.059a2.782,2.782,0,0,0-2.5,1.376H6.851V.211ZM0,.211H2.65v8.52H0Z" transform="translate(0.211 4.024)" fill="#fff"/>
    </g>
  </g>
</svg>
