<svg xmlns="http://www.w3.org/2000/svg" xmlns:xlink="http://www.w3.org/1999/xlink" width="132" height="45" viewBox="0 0 132 45">
  <defs>
    <clipPath id="clip-path">
      <rect id="Rectangle_1325" data-name="Rectangle 1325" width="132" height="45" transform="translate(2440 -99)" fill="none"/>
    </clipPath>
    <clipPath id="clip-path-2">
      <rect id="Rectangle_271" data-name="Rectangle 271" width="127" height="43" transform="translate(-0.294 0.433)" fill="none"/>
    </clipPath>
  </defs>
  <g id="Mask_Group_10" data-name="Mask Group 10" transform="translate(-2440 99)" clip-path="url(#clip-path)">
    <g id="Group_22423" data-name="Group 22423" transform="translate(2068.473 -119.729)">
      <g id="justkhelologo" transform="translate(374.822 18.296)" clip-path="url(#clip-path-2)">
        <g id="logow" transform="translate(-0.428 4.139)">
          <path id="Path_1" data-name="Path 1" d="M214.542,339.027h-7.968V335.2h12.213c.007.142.015.276.015.4,0,5.528.007,11.064-.007,16.592a9.1,9.1,0,0,1-1.345,5.117,7.056,7.056,0,0,1-5.237,3.193,10.219,10.219,0,0,1-8.587-2.708c-.1-.089-.209-.172-.328-.276.828-1.149,1.626-2.253,2.44-3.387.3.254.574.5.858.724a6.812,6.812,0,0,0,3.551,1.6,3.858,3.858,0,0,0,4.3-3.364,7.878,7.878,0,0,0,.074-1.112c.007-4.148,0-8.306,0-12.452A4.534,4.534,0,0,0,214.542,339.027Z" transform="translate(-203.298 -330.61)" fill="#fff"/>
          <path id="Path_2" data-name="Path 2" d="M646.1,421.728c.7-.843,1.358-1.634,2.044-2.452.126.1.254.194.373.291a8.9,8.9,0,0,0,5.491,2.208,4,4,0,0,0,2.679-.731,2.111,2.111,0,0,0-.187-3.5,12.3,12.3,0,0,0-3.178-1.119,23.343,23.343,0,0,1-3.492-1.157,5.168,5.168,0,0,1-2.335-7.259,4.99,4.99,0,0,1,3.006-2.425,10.429,10.429,0,0,1,9.669,1.634,1.763,1.763,0,0,0,.172.1c-.6.843-1.164,1.642-1.731,2.447a8.416,8.416,0,0,0-4.924-1.731,4.334,4.334,0,0,0-2.342.47,2.057,2.057,0,0,0-.158,3.544,12.546,12.546,0,0,0,2.8,1.074,22.482,22.482,0,0,1,4.118,1.388,5.254,5.254,0,0,1,1.686,7.938,6.278,6.278,0,0,1-4.327,2.238,11.5,11.5,0,0,1-9.116-2.812C646.264,421.826,646.179,421.788,646.1,421.728Z" transform="translate(-611.81 -395.242)" fill="#fff"/>
          <path id="Path_3" data-name="Path 3" d="M441.715,418h3.148c.007.1.022.216.022.321,0,3.544.022,7.087-.022,10.623a7.963,7.963,0,0,1-1.783,5.26,7.5,7.5,0,0,1-5.715,2.611,8.353,8.353,0,0,1-4.462-.963,7.15,7.15,0,0,1-3.678-5.558,17.946,17.946,0,0,1-.142-2.194c-.015-3.208-.007-6.416-.007-9.624v-.463h3.182v.418c0,3.372-.007,6.737,0,10.109a5.8,5.8,0,0,0,1.4,3.977,4.651,4.651,0,0,0,7.625-1.626,7.245,7.245,0,0,0,.418-2.522V418.48C441.715,418.335,441.715,418.187,441.715,418Z" transform="translate(-410.976 -407.233)" fill="#fff"/>
          <path id="Path_4" data-name="Path 4" d="M1391.056,442.663h8v2.452h-8v4.334h9.192v2.574H1388.2V435.8h11.78v2.574h-8.932C1391.056,439.814,1391.056,441.217,1391.056,442.663Z" transform="translate(-1298.546 -423.705)" fill="#fff"/>
          <path id="Path_5" data-name="Path 5" d="M1203.98,453.877v-6.535H1196v6.535h-2.7v-16.07h2.7v6.916h7.979V437.8h2.716v16.07C1205.807,453.877,1204.913,453.877,1203.98,453.877Z" transform="translate(-1118.813 -425.556)" fill="#fff"/>
          <path id="Path_7" data-name="Path 7" d="M1566.859,283.589c.209.045.388.079.567.127.515.135.657.3.679.835.015.4.015.8.015,1.194.007,2.708,0,5.424.015,8.132.007,2.335.045,4.667.059,7.013.007.82-.269,1.119-1.082,1.119-.768,0-1.537-.037-2.305-.074-.448-.022-.611-.216-.633-.664-.007-.134-.007-.276-.007-.411-.008-2.895-.015-5.8-.03-8.692q-.022-3.727-.045-7.461c-.007-.776.079-.9.858-1.015.388-.059.53-.2.515-.619-.074-2.731-.119-5.469-.172-8.2a2.659,2.659,0,0,1,0-.485c.052-.254.089-.672.231-.712a2.815,2.815,0,0,1,1.089-.007c.067.007.158.216.165.343.037.485.059.97.059,1.448.015,2.6.022,5.2.03,7.8C1566.859,283.358,1566.859,283.463,1566.859,283.589Z" transform="translate(-1460.69 -273.621)" fill="#fff"/>
          <path id="Path_8" data-name="Path 8" d="M880.925,438.454H877.8V420.9h3.125Z" transform="translate(-827.019 -410.133)" fill="#fff"/>
          <path id="Path_9" data-name="Path 9" d="M983.827,322.939v3.477c4.26-3.723,8.465-7.4,12.72-11.116.03.142.059.209.045.224q-8.023,8.74-16.093,17.525V322.932C981.619,322.939,982.7,322.939,983.827,322.939Z" transform="translate(-921.889 -312.195)" fill="#fff"/>
          <path id="Path_11" data-name="Path 11" d="M1028.2,527.194c.7-.761,1.365-1.485,2.007-2.194.4.373.791.716,1.157,1.1q3.906,4.051,7.789,8.124a1.4,1.4,0,0,1,.194.4,1.956,1.956,0,0,1-.4.112c-.881.015-1.761.007-2.642.03a2.235,2.235,0,0,1-1.753-.768c-1.335-1.418-2.663-2.848-3.991-4.272C1029.79,528.887,1029.007,528.059,1028.2,527.194Z" transform="translate(-966.031 -506.251)" fill="#fff"/>
          <path id="Path_14" data-name="Path 14" d="M861.085,559.4v6.909h-3.3c-.037-.463-.067-.925-.1-1.47-3.216,2.932-6.394,5.826-9.572,8.721L848,573.5a1.245,1.245,0,0,1,.172-.291c1.216-1.313,2.432-2.619,3.656-3.932q4.5-4.825,8.99-9.651A1.5,1.5,0,0,0,861,559.3.386.386,0,0,0,861.085,559.4Z" transform="translate(-799.274 -537.992)" fill="#fff"/>
          <g id="Group_287" data-name="Group 287" transform="translate(109.096 8.112)">
            <path id="Path_6" data-name="Path 6" d="M1736,385.564a7.454,7.454,0,0,1,6.207,2.522,10.846,10.846,0,0,1,2.806,6.282,12.1,12.1,0,0,1-1.187,7.057c-.224.44-.507.85-.768,1.276a1.711,1.711,0,0,1-.164.194c-.372-.507-.739-.985-1.081-1.47a4.963,4.963,0,0,1-.672-1.028c-.149-.411-.537-.649-.611-1.126a3.99,3.99,0,0,0-.574-1.037,1.486,1.486,0,0,1-.1-.418c-.015-.067,0-.164-.037-.209a3.647,3.647,0,0,1-.633-1.081c-.158-.418-.544-.753-.672-1.179-.179-.6-.507-1.149-.687-1.74a8.709,8.709,0,0,1-.441-1.067c-.059-.485-.418-.911-.4-1.32a2.678,2.678,0,0,0-.306-1.089c-.045-.164.015-.35-.022-.522a5.934,5.934,0,0,1-.291-1.492c.037-.515-.316-.985-.1-1.5.03-.074-.022-.194-.052-.283C1736.158,386.071,1736.079,385.84,1736,385.564Z" transform="translate(-1727.427 -385.54)" fill="#fff"/>
            <path id="Path_10" data-name="Path 10" d="M1640.366,456.22a7.092,7.092,0,0,1-3.663-1.089,9.59,9.59,0,0,1-4.1-5.617,12.137,12.137,0,0,1,.985-9.651l.135-.224a1.664,1.664,0,0,1,.112-.134c.089.316.35.537.126.865a.093.093,0,0,0-.015.074c.283.448.079.962.224,1.44a3.669,3.669,0,0,1,.291,1.455,1.794,1.794,0,0,0,.261,1.1c.022.059.075.142.059.172-.261.358.079.589.158.88a4.961,4.961,0,0,1,.09.582.822.822,0,0,0,.015.142c.2.455.411.911.6,1.365.079.187.112.388.187.582a2.826,2.826,0,0,0,.224.418c.1.164.276.3.15.522a.158.158,0,0,0,.007.142c.276.433.567.865.844,1.3a2.742,2.742,0,0,1,.119.372,2.794,2.794,0,0,0,.261.492c.112.15.328.246.164.485a.158.158,0,0,0,.007.142c.217.365.448.724.664,1.089l.672,1.142a1.8,1.8,0,0,0,.089.164C1639.465,455.011,1639.892,455.585,1640.366,456.22Z" transform="translate(-1632.024 -435.242)" fill="#fff"/>
            <path id="Path_12" data-name="Path 12" d="M1701.72,408.3c-.387.309-.776.612-1.142.921-.231.2-.4.181-.56-.091-.97-1.532-1.97-3.054-2.91-4.6a36.743,36.743,0,0,1-4.245-11.874c-.112-.543-.231-1.079-.335-1.623a.423.423,0,0,1,.052-.294,5.474,5.474,0,0,1,1.873-.838,6.113,6.113,0,0,0,.052.649c.045.234.246.453.03.7a.171.171,0,0,0,0,.106,2.614,2.614,0,0,1,.149,1.027,5.109,5.109,0,0,0,.291,1.464c.052.211.172.4.015.634-.044.068.052.249.1.378.1.3.4.551.217.936-.037.08.089.249.141.378.111.294.4.536.224.9a.1.1,0,0,0,.015.076c.164.407.328.816.485,1.223.1.249.164.505.269.755.059.143.179.272.237.415a3.2,3.2,0,0,1,.12.46c.008.045-.015.113.008.144.276.438.559.876.82,1.321a2.288,2.288,0,0,1,.135.4,1.019,1.019,0,0,0,.1.3,4.538,4.538,0,0,0,.4.445c-.03.015-.067.038-.1.053l.238.589c.074.174.158.34.237.513.015.031.015.076.03.105.254.378.522.755.769,1.14.231.378.417.785.656,1.163.2.321.433.634.664.936C1701.056,407.5,1701.372,407.866,1701.72,408.3Z" transform="translate(-1687.531 -389.569)" fill="#fff"/>
            <path id="Path_13" data-name="Path 13" d="M1682.955,423.942c-.687.264-1.261.482-1.82.7-.507-.672-.992-1.291-1.455-1.929a10.191,10.191,0,0,1-.5-.89,1.068,1.068,0,0,0-.164-.241c-.134-.151-.336-.265-.246-.529a.072.072,0,0,0-.03-.068c-.44-.294-.38-.876-.7-1.238-.052-.053-.127-.136-.112-.189.1-.392-.237-.563-.388-.845a12.6,12.6,0,0,1-.5-1.177c-.008-.015-.008-.023-.015-.038a13.081,13.081,0,0,1-.6-1.206c-.172-.468-.544-.853-.53-1.4,0-.143-.134-.287-.209-.43-.112-.219-.283-.392-.172-.717.059-.166-.164-.423-.231-.649-.045-.143-.022-.3-.067-.445-.074-.249-.179-.482-.246-.732a3.3,3.3,0,0,1-.089-.543c-.015-.08-.022-.174-.03-.256-.045-.287-.079-.574-.135-.861-.1-.543-.2-1.087-.305-1.631-.015-.068-.06-.174-.03-.211.209-.249.045-.476-.03-.7-.067-.211-.187-.407-.03-.665.067-.113-.089-.347-.112-.529-.015-.121-.037-.3.03-.37.254-.272.544-.505.91-.838A36.034,36.034,0,0,0,1682.955,423.942Z" transform="translate(-1670.723 -403.822)" fill="#fff"/>
            <path id="Path_15" data-name="Path 15" d="M1731.156,403.58l-.463.563c-.359-.483-.712-.937-1.044-1.405-.268-.378-.544-.748-.776-1.149-.209-.355-.365-.74-.544-1.111a1.081,1.081,0,0,0-.134-.219.919.919,0,0,1-.359-.657c0-.161-.237-.322-.4-.521.254-.3.06-.514-.172-.733-.15-.136-.343-.28-.187-.536a.108.108,0,0,0-.015-.106c-.433-.294-.4-.876-.731-1.231-.1-.113-.119-.294-.194-.438-.1-.212-.246-.4-.335-.612-.179-.438-.317-.885-.492-1.322-.1-.249-.254-.483-.358-.733a2.877,2.877,0,0,1-.089-.438,6.882,6.882,0,0,0-.231-.664c-.074-.189-.2-.34-.1-.59.052-.129-.1-.34-.165-.514-.1-.257-.343-.476-.164-.793.015-.023-.007-.076-.015-.106a4.828,4.828,0,0,1-.306-1.541c.067-.514-.321-.952-.1-1.458.052-.113-.045-.317-.12-.461a.917.917,0,0,1-.007-.846c.052-.1.209-.143.4-.257.052.446.4.748.15,1.171-.037.06.037.189.067.287.075.241.254.476.052.733-.015.015-.007.053,0,.076.089.453.179.914.284,1.367a1.207,1.207,0,0,1,.074.786c-.067.181.172.468.246.717a2.468,2.468,0,0,1,.052.476c0,.038-.03.076-.015.105a6.039,6.039,0,0,1,.5,1.519,7.773,7.773,0,0,0,.522,1.624,2.224,2.224,0,0,0,.135.265c.119.219.4.37.254.688a.081.081,0,0,0,.022.068,3.787,3.787,0,0,1,.619,1.065c.12.265.463.423.4.8a1.72,1.72,0,0,1,.6,1.231c.1.544.619.786.679,1.33a1.758,1.758,0,0,0,.4.724c.261.385.537.755.805,1.133C1730.3,402.417,1730.712,402.976,1731.156,403.58Z" transform="translate(-1715.917 -385.683)" fill="#fff"/>
            <path id="Path_16" data-name="Path 16" d="M1669.533,440.516c-.269.038-.522.068-.768.105-.328-.416-.664-.816-.963-1.239a9.473,9.473,0,0,1-.492-.9c-.015-.023-.008-.053-.022-.076-.246-.37-.492-.748-.739-1.118-.045-.06-.112-.106-.135-.174-.1-.257-.2-.521-.328-.876.158-.2-.015-.43-.254-.644-.149-.136-.358-.265-.187-.529.022-.038-.007-.129-.037-.174a2.028,2.028,0,0,1-.522-.9c-.052-.28-.35-.514-.448-.885a8.276,8.276,0,0,0-.7-1.443,3.918,3.918,0,0,1-.522-1.287c-.03-.446-.358-.816-.328-1.171.052-.521-.246-.862-.35-1.287a8.626,8.626,0,0,1-.127-1.33,2.3,2.3,0,0,0-.074-.322c-.059-.227-.237-.446-.037-.7.037-.045-.022-.167-.045-.249-.074-.272-.283-.529-.079-.846.037-.06-.007-.2-.059-.279a1.817,1.817,0,0,1-.1-1.207c.007-.212.261-.4.507-.589v.506c0,.045-.045.1-.037.143.074.5.165,1,.231,1.5a3.826,3.826,0,0,1,.015.506c0,.045-.03.1-.022.143.1.468.187.936.291,1.405.059.249.246.476.037.74a.13.13,0,0,0,0,.106c.194.582.4,1.171.582,1.753a1.937,1.937,0,0,1,.052.514c.008.06-.03.143-.007.181a4.571,4.571,0,0,1,.425,1.141c.172.468.6.891.619,1.352.022.506.507.718.492,1.194,0,.106.164.212.231.332.079.161.15.322.216.491.022.045.008.113.037.143a2.94,2.94,0,0,1,.574,1.046c.1.212.359.363.217.664-.015.031.015.105.045.136.5.43.626,1.1,1.015,1.6.38.483.739.982,1.1,1.481C1669.067,439.829,1669.288,440.161,1669.533,440.516Z" transform="translate(-1659.907 -419.644)" fill="#fff"/>
          </g>
          <g id="Group_4" data-name="Group 4" transform="translate(45.139 4.451)">
            <path id="Path_17" data-name="Path 17" d="M891,342.417c.008-.492.231-.712.7-.712.492,0,.746.231.746.712,0,1.067-.015,2.136-.037,3.2-.008.515-.231.724-.694.724a.676.676,0,0,1-.754-.761C890.952,345.058,890.99,342.947,891,342.417Z" transform="translate(-883.571 -341.634)" fill="#fff"/>
            <path id="Path_18" data-name="Path 18" d="M839.454,344.661c-.015.574-.3.805-.865.739a.588.588,0,0,1-.589-.633c0-1.015.007-2.037.022-3.051a1.568,1.568,0,0,1,.059-.365c.089-.411.283-.574.664-.559.455.022.724.246.739.672C839.491,342,839.469,344.146,839.454,344.661Z" transform="translate(-834.566 -340.79)" fill="#fff"/>
            <path id="Path_19" data-name="Path 19" d="M919.373,345.423a.622.622,0,0,1-.672.679c-.492.007-.746-.194-.753-.672-.008-1.089-.008-2.186.022-3.275a.617.617,0,0,1,.739-.679.665.665,0,0,1,.694.746C919.412,342.745,919.4,344.879,919.373,345.423Z" transform="translate(-908.547 -341.425)" fill="#fff"/>
            <path id="Path_20" data-name="Path 20" d="M864.419,343.818c0-.544-.007-1.1,0-1.641.015-.507.231-.7.716-.687.507.007.7.194.7.7.007.992-.03,3.305-.074,3.462a.582.582,0,0,1-.7.507.651.651,0,0,1-.672-.657C864.374,344.944,864.411,343.818,864.419,343.818Z" transform="translate(-858.978 -341.438)" fill="#fff"/>
            <path id="Path_21" data-name="Path 21" d="M795.084,360.617v1.634c-.858,0-1.686.015-2.514-.007-.306-.007-.567-.418-.574-.776-.007-.38.269-.82.6-.835C793.43,360.6,794.266,360.617,795.084,360.617Z" transform="translate(-791.996 -359.133)" fill="#fff"/>
            <path id="Path_22" data-name="Path 22" d="M941.9,362.953V361.2c.865.037,1.7.052,2.531.127a.712.712,0,0,1,.544.746.775.775,0,0,1-.53.805,2,2,0,0,1-.515.074Z" transform="translate(-930.715 -359.679)" fill="#fff"/>
          </g>
        </g>
      </g>
      <text id="Dil_se_khelo" data-name="Dil se khelo" transform="translate(438.527 63.729)" fill="#fff" font-size="9" font-family="Poppins-ExtraLight, Poppins" font-weight="200" letter-spacing="0.1em"><tspan x="0" y="0">DIL SE KHELO</tspan></text>
    </g>
  </g>
</svg>
