<svg xmlns="http://www.w3.org/2000/svg" width="240" height="144" viewBox="0 0 240 144">
  <g id="mastercard" transform="translate(-995 -4430)">
    <path id="_3mastercard" data-name="3mastercard" d="M0,0H240a0,0,0,0,1,0,0V144a0,0,0,0,1,0,0H20A20,20,0,0,1,0,124V0A0,0,0,0,1,0,0Z" transform="translate(995 4430)" fill="#f8f8f8"/>
    <g id="mastercard-4" transform="translate(1042.826 4420.115)">
      <path id="Path_3377" data-name="Path 3377" d="M91.618,107.546a34.2,34.2,0,0,0,23.211,9.033,34.848,34.848,0,0,0,0-69.694,34.2,34.2,0,0,0-23.211,9.033,34.871,34.871,0,0,0,0,51.628Z" transform="translate(-19.535)" fill="#e9b040" fill-rule="evenodd"/>
      <path id="Path_3378" data-name="Path 3378" d="M172.041,123.5a1.072,1.072,0,0,1,1.077-1.077,1.087,1.087,0,0,1,1.136,1.077,1.1,1.1,0,0,1-1.136,1.137A1.087,1.087,0,0,1,172.041,123.5Zm1.077.9a.92.92,0,0,0,.9-.9.869.869,0,0,0-.9-.837.855.855,0,0,0-.837.837A.912.912,0,0,0,173.118,124.395Zm-.12-.359h-.239v-1.017h.418a.355.355,0,0,1,.239.061c.12.059.12.12.12.239s-.059.239-.179.239l.239.479h-.3l-.12-.42H173v-.18h.239c.059,0,.059-.061.059-.12s0-.061-.059-.12H173Z" transform="translate(-46.715 -22.352)" fill="#e9b040" fill-rule="evenodd"/>
      <path id="Path_3379" data-name="Path 3379" d="M83.269,78.053c-.12-1.256-.359-2.452-.6-3.709H61.493A36.486,36.486,0,0,1,62.45,70.7h19.2q-.625-1.889-1.436-3.709H63.946q.9-1.9,1.974-3.709H78.185a31.476,31.476,0,0,0-2.632-3.649h-7a34.409,34.409,0,0,1,3.53-3.709,34.848,34.848,0,1,0,0,51.628,33.166,33.166,0,0,0,3.47-3.65h-7a41.252,41.252,0,0,1-2.633-3.709H78.185a27.823,27.823,0,0,0,2.034-3.709H63.946a38.927,38.927,0,0,1-1.5-3.65h19.2a37.288,37.288,0,0,0,1.016-3.709,36.8,36.8,0,0,0,.6-3.709,36.342,36.342,0,0,0,.18-3.65c0-1.254-.06-2.51-.18-3.706Z" transform="translate(0 0)" fill="#cc2131" fill-rule="evenodd"/>
      <path id="Path_3380" data-name="Path 3380" d="M172.041,107.414a1.087,1.087,0,0,1,1.077-1.136,1.1,1.1,0,0,1,1.136,1.136,1.107,1.107,0,1,1-2.212,0Zm1.077.837a.839.839,0,1,0,0-1.674.837.837,0,0,0,0,1.674Zm-.12-.359h-.239v-.957h.658c.12.061.12.18.12.3a.322.322,0,0,1-.179.239l.239.418h-.3l-.12-.359H173v-.18h.12c.059,0,.12,0,.12-.061.059,0,.059-.059.059-.12a.058.058,0,0,0-.059-.059c0-.061-.061,0-.12,0H173Z" transform="translate(-46.715 -17.575)" fill="#fff" fill-rule="evenodd"/>
      <path id="Path_3381" data-name="Path 3381" d="M61.227,103.177a11.063,11.063,0,0,1-2.811.479c-1.795,0-2.872-1.137-2.872-3.171a10.75,10.75,0,0,1,.12-1.316l.239-1.375.18-1.137L57.7,86.846h3.589L60.868,89h2.273L62.6,92.589H60.33l-.957,5.862a2.751,2.751,0,0,0-.06.6c0,.778.359,1.077,1.256,1.077a6.551,6.551,0,0,0,1.136-.12l-.478,3.17Zm11.606-.12A14.075,14.075,0,0,1,69,103.6c-4.068,0-6.4-2.154-6.4-6.4,0-4.966,2.752-8.555,6.58-8.555,3.051,0,5.025,2.034,5.025,5.2a16.5,16.5,0,0,1-.418,3.53H66.312a1.684,1.684,0,0,0-.06.479c0,1.675,1.136,2.512,3.29,2.512a9.02,9.02,0,0,0,3.889-.9ZM70.62,94.5v-.718a1.656,1.656,0,0,0-1.795-1.855c-1.2,0-2.034.9-2.393,2.572H70.62Zm-38.108,8.853H28.8l2.154-13.579-4.846,13.579H23.539l-.3-13.519-2.273,13.519H17.317l2.931-17.647h5.444l.12,10.889,3.649-10.889h5.983l-2.932,17.647Zm9.034-6.4a3.4,3.4,0,0,0-.718-.061c-2.154,0-3.23.837-3.23,2.154a1.354,1.354,0,0,0,1.376,1.5c1.795,0,2.512-1.5,2.573-3.589Zm2.991,6.4h-3.23l.06-1.495a4.385,4.385,0,0,1-3.949,1.734c-1.795,0-3.35-1.614-3.35-3.948a6.331,6.331,0,0,1,.3-1.854c.6-2.214,2.811-3.589,6.221-3.65.419,0,1.077,0,1.675.061a3.183,3.183,0,0,0,.119-.958c0-.958-.777-1.257-2.512-1.257a9.982,9.982,0,0,0-3.111.479l-.539.12-.239.059.539-3.23a14.04,14.04,0,0,1,4.367-.777c3.23,0,4.965,1.5,4.965,4.247a13.571,13.571,0,0,1-.18,2.812l-.837,5.145-.12.9-.06.718-.06.479-.06.418ZM90.9,89.119a7.193,7.193,0,0,1,3.35.957l.658-3.829a8.28,8.28,0,0,0-.957-.359l-1.495-.419a7.363,7.363,0,0,0-1.736-.18c-1.855,0-2.932.06-4.067.718a11.244,11.244,0,0,0-2.214,1.914l-.479-.12-3.829,2.692.18-1.5H76.362L74.03,103.355H77.8l1.375-7.716s.539-1.078.778-1.436a2.18,2.18,0,0,1,2.093-.9h.3a19.311,19.311,0,0,0-.18,2.752c0,4.666,2.632,7.6,6.7,7.6a12.089,12.089,0,0,0,3.291-.479l.659-4.067a6.757,6.757,0,0,1-3.171.957c-2.213,0-3.53-1.675-3.53-4.307C86.113,91.87,88.088,89.119,90.9,89.119Zm31.765-3.41-.836,5.025a3.874,3.874,0,0,0-3.411-2.034,5.644,5.644,0,0,0-4.966,3.29v-.059l-2.392-1.436L111.3,89h-4.008l-2.273,14.357h3.709l1.257-7.716s.957-1.078,1.2-1.436a2.337,2.337,0,0,1,1.675-.9,12.94,12.94,0,0,0-.658,4.248c0,3.589,1.854,5.982,4.605,5.982a4.347,4.347,0,0,0,3.47-1.616l-.179,1.436h3.53l2.871-17.647h-3.83Zm-4.605,14.238c-1.257,0-1.914-.957-1.914-2.812,0-2.812,1.2-4.846,2.93-4.846,1.316,0,1.975,1.017,1.975,2.812,0,2.871-1.2,4.846-2.991,4.846Zm-17.288-2.991a3.4,3.4,0,0,0-.718-.061c-2.155,0-3.232.837-3.232,2.154a1.354,1.354,0,0,0,1.376,1.5C99.993,100.545,100.711,99.049,100.771,96.956Zm2.991,6.4h-3.291l.12-1.495a4.385,4.385,0,0,1-3.948,1.734,3.64,3.64,0,0,1-3.47-3.948c0-3.409,2.571-5.5,6.64-5.5a15.518,15.518,0,0,1,1.616.061,3.683,3.683,0,0,0,.18-.958c0-.958-.778-1.257-2.573-1.257a10.267,10.267,0,0,0-3.111.479l-.479.12-.239.059.538-3.23a14.05,14.05,0,0,1,4.367-.777c3.23,0,4.905,1.5,4.905,4.247a10.3,10.3,0,0,1-.179,2.812l-.778,5.145-.12.9-.12.718-.059.479v.417h0ZM52.373,92.05a17.74,17.74,0,0,1,2.812.239l.539-3.35c-1.077-.12-2.513-.3-3.351-.3-4.187,0-5.563,2.273-5.563,4.905,0,1.736.777,2.991,2.811,3.948,1.5.718,1.735.837,1.735,1.5,0,.9-.777,1.436-2.214,1.436a10.016,10.016,0,0,1-3.41-.6l-.419,3.289.059.061.718.12a9.425,9.425,0,0,0,.958.179c.9.061,1.675.12,2.154.12,4.188,0,5.923-1.614,5.923-4.786A4.085,4.085,0,0,0,52.314,94.8c-1.615-.719-1.795-.837-1.795-1.5s.718-1.256,1.855-1.256Z" transform="translate(-0.93 -11.364)" fill="#1b3771" fill-rule="evenodd"/>
      <path id="Path_3382" data-name="Path 3382" d="M96.4,84.658l-.659,3.829a7.185,7.185,0,0,0-3.35-.957c-2.812,0-4.786,2.752-4.786,6.64,0,2.692,1.316,4.307,3.53,4.307a7.345,7.345,0,0,0,3.17-.9l-.658,4.007a12.46,12.46,0,0,1-3.291.539c-4.067,0-6.58-2.932-6.58-7.657,0-6.282,3.47-10.709,8.435-10.709a7.358,7.358,0,0,1,1.734.18l1.5.359c.479.18.6.239.958.358ZM84.318,87.291h-.359c-1.255,0-1.974.6-3.111,2.333l.359-2.214H77.8l-2.332,14.358h3.77c1.375-8.794,1.734-10.289,3.529-10.289H83a15.039,15.039,0,0,1,1.436-4.128l-.12-.059Zm-21.656,14.3a7.763,7.763,0,0,1-2.692.479c-1.914,0-2.992-1.077-2.992-3.17a9.864,9.864,0,0,1,.12-1.257l.239-1.436.18-1.136,1.615-9.812h3.709l-.419,2.154h1.914l-.479,3.53H61.944l-1.017,5.983a2.248,2.248,0,0,0-.06.6c0,.718.359,1.017,1.256,1.017a2.488,2.488,0,0,0,1.017-.12l-.478,3.169ZM48.245,91.957c0,1.8.837,3.051,2.811,4.008,1.555.718,1.795.957,1.795,1.555,0,.9-.658,1.316-2.154,1.316a11.179,11.179,0,0,1-3.35-.538l-.539,3.289.18.061.658.12a3.93,3.93,0,0,0,1.017.12,13.825,13.825,0,0,0,2.034.12c3.948,0,5.8-1.5,5.8-4.786a3.978,3.978,0,0,0-2.632-4.008c-1.615-.718-1.795-.9-1.795-1.555,0-.777.658-1.136,1.855-1.136a23.359,23.359,0,0,1,2.692.18l.538-3.29a21.665,21.665,0,0,0-3.29-.3c-4.188,0-5.683,2.213-5.624,4.845Zm76.813,9.811h-3.53l.18-1.376a4.48,4.48,0,0,1-3.471,1.555c-2.752,0-4.546-2.332-4.546-5.921,0-4.786,2.812-8.855,6.1-8.855a4.3,4.3,0,0,1,3.591,1.974l.837-5.025h3.709l-2.871,17.648Zm-5.5-3.35c1.736,0,2.932-2.034,2.932-4.846,0-1.855-.659-2.812-1.975-2.812-1.675,0-2.93,1.974-2.93,4.786Q117.581,98.419,119.554,98.418Zm-45.406,3.05a12.256,12.256,0,0,1-3.889.6c-4.188,0-6.342-2.213-6.342-6.461,0-4.905,2.752-8.555,6.521-8.555,3.111,0,5.084,2.034,5.084,5.2a14.46,14.46,0,0,1-.479,3.589H67.628a1.174,1.174,0,0,0-.06.42c0,1.675,1.137,2.512,3.29,2.512a8.229,8.229,0,0,0,3.889-.9l-.6,3.589Zm-2.094-8.555V92.2a1.656,1.656,0,0,0-1.795-1.855c-1.2,0-2.034.9-2.393,2.572h4.188Zm-38.107,8.855H30.238l2.154-13.58-4.846,13.58H24.974l-.3-13.461L22.4,101.768h-3.47L21.863,84.12h5.384l.18,10.948L31.015,84.12h5.863l-2.931,17.648Zm9.273-6.4c-.359,0-.539-.059-.838-.059-2.094,0-3.17.777-3.17,2.213a1.262,1.262,0,0,0,1.316,1.436c1.555,0,2.633-1.436,2.692-3.589Zm2.752,6.4H42.86l.06-1.5a4.662,4.662,0,0,1-3.949,1.736c-2.034,0-3.41-1.555-3.41-3.889,0-3.529,2.392-5.563,6.58-5.563.419,0,.958.06,1.555.119a3.016,3.016,0,0,0,.12-.9c0-.957-.658-1.316-2.393-1.316a12.34,12.34,0,0,0-3.111.359l-.539.18-.359.06.539-3.23a15.044,15.044,0,0,1,4.487-.718c3.23,0,4.965,1.436,4.965,4.187a18.092,18.092,0,0,1-.3,2.872l-.838,5.086-.12.9-.06.718-.06.539-.058.358Zm56.474-6.4c-.42,0-.6-.059-.837-.059-2.154,0-3.232.777-3.232,2.213a1.305,1.305,0,0,0,1.376,1.436c1.5,0,2.632-1.436,2.692-3.589Zm2.752,6.4h-3.111l.059-1.5a4.66,4.66,0,0,1-3.948,1.736c-2.034,0-3.411-1.555-3.411-3.889,0-3.529,2.392-5.563,6.58-5.563.42,0,.958.06,1.5.119a3.805,3.805,0,0,0,.18-.9c0-.957-.659-1.316-2.392-1.316a12.836,12.836,0,0,0-3.171.359L97,91l-.359.06.538-3.23a15.048,15.048,0,0,1,4.487-.718c3.23,0,4.905,1.436,4.905,4.187a12.871,12.871,0,0,1-.3,2.872l-.778,5.086-.12.9-.12.718-.059.539v.358h0Zm10.05-14.477h-.359c-1.255,0-1.974.6-3.111,2.333l.359-2.214h-3.411l-2.273,14.358h3.709c1.376-8.794,1.736-10.289,3.53-10.289h.239a15.039,15.039,0,0,1,1.436-4.128Z" transform="translate(-1.408 -10.912)" fill="#fff" fill-rule="evenodd"/>
    </g>
  </g>
</svg>
