<svg xmlns="http://www.w3.org/2000/svg" width="240" height="144" viewBox="0 0 240 144">
  <g id="mobikwik" transform="translate(-1305 -4645)">
    <path id="Rectangle_1022" data-name="Rectangle 1022" d="M0,0H240a0,0,0,0,1,0,0V144a0,0,0,0,1,0,0H20A20,20,0,0,1,0,124V0A0,0,0,0,1,0,0Z" transform="translate(1305 4645)" fill="#f8f8f8"/>
    <path id="mobikwik-logo" d="M57.157,36.114v-.063a5.136,5.136,0,0,0-5.151-5.308,4.989,4.989,0,0,0-5.056,5.245v.063a5.121,5.121,0,0,0,5.119,5.277,4.988,4.988,0,0,0,5.088-5.214Zm-14.054,0v-.063a8.7,8.7,0,0,1,8.967-8.62A8.624,8.624,0,0,1,61,35.988v.063a8.705,8.705,0,0,1-9,8.588A8.607,8.607,0,0,1,43.1,36.114Zm33.48-.053v-.068c0-3.185-2.192-5.277-4.8-5.277a5.012,5.012,0,0,0-4.9,5.277v.063a5.012,5.012,0,0,0,4.9,5.277c2.638,0,4.8-2.029,4.8-5.277ZM63.128,23.185a1.863,1.863,0,0,1,1.913-1.876,1.882,1.882,0,0,1,1.939,1.876v7.342a6.747,6.747,0,0,1,5.724-3.09c3.942,0,7.789,3.059,7.789,8.557v.063c0,5.466-3.816,8.557-7.789,8.557a6.891,6.891,0,0,1-5.729-2.907v.846a1.922,1.922,0,0,1-3.842,0ZM82.911,29.5a1.88,1.88,0,0,1,1.908-1.9,1.907,1.907,0,0,1,1.939,1.9V42.553a1.924,1.924,0,0,1-3.847,0Zm-.289-6.149a2.224,2.224,0,0,1,4.383-.005v.189a2.218,2.218,0,0,1-4.383,0Zm7.821.8a1.956,1.956,0,0,1,3.91,0V33.4l10.554-10.438a2.071,2.071,0,0,1,1.619-.72,1.778,1.778,0,0,1,1.813,1.787,1.84,1.84,0,0,1-.7,1.43L100.7,32.02l7.511,9.15a2.05,2.05,0,0,1,.541,1.377,1.894,1.894,0,0,1-1.971,1.876,1.981,1.981,0,0,1-1.656-.9l-7.153-8.967-3.627,3.437v4.531a1.955,1.955,0,0,1-3.91,0V24.157Zm22.895,18.711-4.52-12.556a3.1,3.1,0,0,1-.184-.967,1.787,1.787,0,0,1,1.876-1.75,1.97,1.97,0,0,1,1.876,1.5l3.243,10,3.274-10a2.033,2.033,0,0,1,1.971-1.5h.221a2.043,2.043,0,0,1,1.971,1.5l3.306,10,3.274-10.028a1.9,1.9,0,0,1,1.876-1.466,1.771,1.771,0,0,1,1.813,1.75,3.069,3.069,0,0,1-.158.841L128.6,42.863a2.237,2.237,0,0,1-2.129,1.687h-.126a2.131,2.131,0,0,1-2.1-1.624l-3.269-9.807-3.311,9.807a2.117,2.117,0,0,1-2.06,1.629h-.126a2.182,2.182,0,0,1-2.129-1.692ZM135.4,29.5a1.88,1.88,0,0,1,1.908-1.9,1.907,1.907,0,0,1,1.939,1.9V42.553a1.924,1.924,0,0,1-3.847,0Zm-.289-6.149a2.224,2.224,0,0,1,4.383-.005v.189a2.218,2.218,0,0,1-4.383,0Zm7.379-.158a1.879,1.879,0,0,1,1.908-1.882,1.9,1.9,0,0,1,1.939,1.876V35.368l7.216-6.964a2.281,2.281,0,0,1,1.656-.809,1.668,1.668,0,0,1,1.682,1.719,2.127,2.127,0,0,1-.851,1.593l-4.452,4.031,5.088,6.528a1.991,1.991,0,0,1,.51,1.251,1.725,1.725,0,0,1-1.813,1.719,1.923,1.923,0,0,1-1.687-.841l-4.8-6.281-2.544,2.376v2.875a1.924,1.924,0,0,1-3.847,0V23.2ZM43.55,28.01a1.727,1.727,0,1,1,1.761-1.719A1.742,1.742,0,0,1,43.55,28.01Zm3.243-2.654c-.336-3.08-3.506-1.84-3.506-1.84-2.25.851-2.765.489-2.765.489l.42-5.992c-.237-2.807-3.984-1.834-3.984-1.834,2.029.92,1.614,2,1.614,2s-2.207,22.075-2.46,23.494-2.207.83-2.207.83v2.418h2.544c1.866,0,2.034-2.5,2.034-2.5L39.729,30.7a33.92,33.92,0,0,0,3.506-.773c4.173-1.393,3.558-4.562,3.558-4.562Zm-2.26.93a.98.98,0,0,1-1.96,0,.983.983,0,0,1,1.96,0ZM26.684,19.742a.289.289,0,0,1,.032-.042,2.2,2.2,0,0,1,1.766-1.356,2.26,2.26,0,0,0-1.955,1.188l-6,10.5-1.02,3.553ZM2.428,44.592a2.176,2.176,0,0,1-.936-2.959L16.324,13.971a2.207,2.207,0,0,1,1.508-1.1l.1-.032a2.28,2.28,0,0,1,.279-.026l.105-.011.084.011a1.288,1.288,0,0,1,.2.021,1.787,1.787,0,0,1,.384.089,1.845,1.845,0,0,1,.315.126c.016.005.032.005.032.016a1.445,1.445,0,0,1,.347.226.229.229,0,0,1,.053.042l.126.121a1.2,1.2,0,0,0-.11-.158,2.165,2.165,0,0,0-.31-.31l-.058-.053a3.2,3.2,0,0,0-.315-.2l-.032-.032a.1.1,0,0,1-.053-.011,1.578,1.578,0,0,0-.315-.126l-.121-.042c-.084-.021-.179-.032-.268-.047a1.345,1.345,0,0,0-.21-.016l-.079-.011-.116.011-.284.026-.105.026a2.244,2.244,0,0,0-1.54,1.13L.8,41.869A2.218,2.218,0,0,0,1.76,44.9,2.313,2.313,0,0,0,4.1,44.76a2.307,2.307,0,0,1-1.687-.152Zm15.9-2.228A2.2,2.2,0,0,1,16.119,40.2V23.763l-.368.683V40.4a2.26,2.26,0,1,0,3.821,1.577,2.239,2.239,0,0,1-1.251.384ZM28.765,41.2a2.2,2.2,0,0,1-2.207-2.165V29.4l-.352.689v9.277a2.292,2.292,0,0,0,4.457.746,2.2,2.2,0,0,1-1.9,1.088Zm-9.256-7.605ZM35.182,13.85s-7.059,1.172-14.653,2.418v13.77c-1.02,3.553-1.02,3.553,6.149-10.291a.289.289,0,0,1,.037-.042,2.207,2.207,0,0,1,4.252.788V39.031a2.208,2.208,0,0,1-4.415,0V29.4l-5.86,11.127a2.013,2.013,0,0,1-.3.42,2.207,2.207,0,0,1-4.273-.752V23.763L5.439,43.667a2.265,2.265,0,0,1-3.017.92,2.176,2.176,0,0,1-.936-2.964L14.564,17.235c-6.26,1.02-11.689,1.9-12.393,2A2.5,2.5,0,0,0,.026,20.946s-.058,23.6,0,24.766a1.573,1.573,0,0,0,1.3,1.388s29.5.221,31.025,0a2.374,2.374,0,0,0,1.808-1.939l3-29.822a1.538,1.538,0,0,0-1.976-1.5Z" transform="translate(1346 4687.553)" fill="#0043cf"/>
  </g>
</svg>
