<svg xmlns="http://www.w3.org/2000/svg" width="240" height="144" viewBox="0 0 240 144">
  <g id="razorpay" transform="translate(-685 -4645)">
    <path id="Rectangle_1024" data-name="Rectangle 1024" d="M0,0H240a0,0,0,0,1,0,0V144a0,0,0,0,1,0,0H20A20,20,0,0,1,0,124V0A0,0,0,0,1,0,0Z" transform="translate(685 4645)" fill="#f8f8f8"/>
    <path id="Path_3397" data-name="Path 3397" d="M3.336,93.311.8,102.767H13.349l5.135-19.237Zm43.592-8.325A4.006,4.006,0,0,1,45.148,87.5a7.162,7.162,0,0,1-3.707.8H36.38l1.777-6.626h5.061a4.945,4.945,0,0,1,3.277.808A2.354,2.354,0,0,1,46.928,85m5.24-.143q.966-3.589-.8-5.522Q49.6,77.415,45.184,77.41h-11.3l-6.8,25.369h5.488l2.74-10.225h3.6a3.975,3.975,0,0,1,1.908.389,1.73,1.73,0,0,1,.822,1.391l.98,8.446h5.879l-.953-7.873q-.291-2.638-2.413-3.1a10.42,10.42,0,0,0,4.53-2.6,9.469,9.469,0,0,0,2.5-4.346M65.508,93.7a8.214,8.214,0,0,1-2.12,3.926,4.788,4.788,0,0,1-3.427,1.36A2.854,2.854,0,0,1,57.2,97.656a5.312,5.312,0,0,1-.051-3.865,8.323,8.323,0,0,1,2.165-3.957A4.87,4.87,0,0,1,62.8,88.407a2.741,2.741,0,0,1,2.7,1.373,5.587,5.587,0,0,1,.02,3.937Zm2.4-8.978-.687,2.567A4.067,4.067,0,0,0,65.5,85.079a5.792,5.792,0,0,0-3.167-.818,8.966,8.966,0,0,0-4.448,1.2,11.76,11.76,0,0,0-3.732,3.374,14.841,14.841,0,0,0-2.342,4.949,10.661,10.661,0,0,0-.3,4.9,5.338,5.338,0,0,0,1.943,3.262,6.138,6.138,0,0,0,3.845,1.145,8.645,8.645,0,0,0,6.5-2.955l-.716,2.675H68.4L73.245,84.73H67.928Zm24.4,0H76.882L75.8,88.75h8.98L72.912,99.005,71.9,102.789H87.828l1.079-4.029H79.285L91.338,88.351M105.9,93.668a8.267,8.267,0,0,1-2.122,3.988,4.783,4.783,0,0,1-3.4,1.319q-4.172,0-2.746-5.307A8.215,8.215,0,0,1,99.765,89.7a4.865,4.865,0,0,1,3.458-1.339,2.74,2.74,0,0,1,2.689,1.334,5.689,5.689,0,0,1-.013,3.975m3.106-8.265a8.727,8.727,0,0,0-4.683-1.141,12.609,12.609,0,0,0-5.348,1.135,11.564,11.564,0,0,0-4.192,3.278,13.247,13.247,0,0,0-2.5,4.99,9.607,9.607,0,0,0-.174,4.983,5.383,5.383,0,0,0,2.434,3.272,8.9,8.9,0,0,0,4.744,1.142,12.353,12.353,0,0,0,5.3-1.143,11.68,11.68,0,0,0,4.172-3.282,13.288,13.288,0,0,0,2.495-4.99,9.538,9.538,0,0,0,.184-4.99,5.417,5.417,0,0,0-2.413-3.277m18.927,4.172,1.36-4.918a4,4,0,0,0-1.82-.358,7.253,7.253,0,0,0-3.507.91,7.655,7.655,0,0,0-2.485,2.162L122.2,84.7l-1.541.006H116.88L112,102.77h5.381l2.531-9.445A5.975,5.975,0,0,1,121.9,90.1a5.482,5.482,0,0,1,3.569-1.155,5.293,5.293,0,0,1,2.474.6m14.98,4.2a8.052,8.052,0,0,1-2.106,3.865,4.83,4.83,0,0,1-3.425,1.339,2.8,2.8,0,0,1-2.72-1.35,5.41,5.41,0,0,1-.041-3.922,8.146,8.146,0,0,1,2.137-3.937,4.845,4.845,0,0,1,3.446-1.375,2.676,2.676,0,0,1,2.659,1.421,5.7,5.7,0,0,1,.029,3.957m3.763-8.323a5.917,5.917,0,0,0-3.814-1.2,8.439,8.439,0,0,0-3.865.926,8.063,8.063,0,0,0-2.976,2.53l.018-.123.9-2.873h-5.256l-1.339,5-.041.174-5.522,20.6h5.389l2.781-10.368a3.721,3.721,0,0,0,1.7,2.17,6.026,6.026,0,0,0,3.18.78,9.366,9.366,0,0,0,4.473-1.135,11.072,11.072,0,0,0,3.691-3.262,14.409,14.409,0,0,0,2.311-4.9,10.9,10.9,0,0,0,.317-4.954,5.519,5.519,0,0,0-1.933-3.364m17.858,8.247a8.2,8.2,0,0,1-2.117,3.916A4.794,4.794,0,0,1,159,98.954a2.845,2.845,0,0,1-2.761-1.329,5.3,5.3,0,0,1-.051-3.865,8.3,8.3,0,0,1,2.16-3.957,4.871,4.871,0,0,1,3.484-1.425,2.754,2.754,0,0,1,2.7,1.37,5.6,5.6,0,0,1,.015,3.937Zm2.4-8.983-.688,2.567a4.031,4.031,0,0,0-1.718-2.209,5.785,5.785,0,0,0-3.17-.818,9.009,9.009,0,0,0-4.458,1.2,11.773,11.773,0,0,0-3.732,3.364,14.8,14.8,0,0,0-2.342,4.949,10.612,10.612,0,0,0-.3,4.9,5.318,5.318,0,0,0,1.943,3.262,6.187,6.187,0,0,0,3.845,1.139,8.5,8.5,0,0,0,3.6-.787,8.415,8.415,0,0,0,2.9-2.171l-.716,2.677h5.307L172.257,84.7H166.95Zm27.595.006,0-.005h-3.262c-.1,0-.2.005-.291.007h-1.692l-.869,1.207-.215.286-.092.143-6.876,9.579L179.821,84.7h-5.632l2.853,17.045-6.3,8.722h5.614l1.524-2.161c.043-.063.082-.117.133-.184l1.779-2.526.051-.072,7.968-11.3,6.718-9.509.01-.006h0Z" transform="translate(707.2 4627.456)" fill="#072654"/>
  </g>
</svg>
