<svg xmlns="http://www.w3.org/2000/svg" width="240" height="144" viewBox="0 0 240 144">
  <g id="rupay" transform="translate(-685 -4430)">
    <path id="Rectangle_1019" data-name="Rectangle 1019" d="M0,0H240a0,0,0,0,1,0,0V144a0,0,0,0,1,0,0H20A20,20,0,0,1,0,124V0A0,0,0,0,1,0,0Z" transform="translate(685 4430)" fill="#f8f8f8"/>
    <g id="rupay-2" data-name="rupay" transform="translate(847.2 4282.6)">
      <path id="Path_3373" data-name="Path 3373" d="M408.824,208l10.08,20.041-21.2,20.07Z" transform="translate(-371.17 -8.141)" fill="#018c45"/>
      <path id="Path_3374" data-name="Path 3374" d="M385.324,208l10.08,20.041-21.2,20.07Z" transform="translate(-354.678 -8.141)" fill="#f47920"/>
      <path id="Path_3375" data-name="Path 3375" d="M-114.8,212h4.891a7.1,7.1,0,0,0,3.758-.746,4.287,4.287,0,0,0,1.7-2.624c.358-1.282.268-2.147-.239-2.654s-1.73-.746-3.638-.746h-4.622Zm-16.4,20.667,10.08-36.264h16.1c5.04,0,8.38.805,10.11,2.445,1.7,1.64,2.028,4.294,1.014,8.022a13.68,13.68,0,0,1-2.863,5.517,13.2,13.2,0,0,1-5.04,3.459,4.4,4.4,0,0,1,3.4,2.535c.507,1.253.447,3.1-.179,5.517l-1.223,5.07v.149c-.358,1.431-.239,2.177.328,2.237l-.358,1.342h-10.885c.03-.865.119-1.61.179-2.266a15.036,15.036,0,0,1,.268-1.521l1.014-3.609c.507-1.879.537-3.191.06-3.966s-1.551-1.163-3.251-1.163H-117l-3.549,12.5Zm67.13-26.751L-71.5,232.664H-80.5l1.1-3.907a17.406,17.406,0,0,1-4.861,3.489,11.737,11.737,0,0,1-5.129,1.163,8.085,8.085,0,0,1-3.787-.805,5.283,5.283,0,0,1-2.356-2.416,6.924,6.924,0,0,1-.6-3.489,39.189,39.189,0,0,1,1.461-6.889l3.847-13.9h9.871L-84.8,219.721c-.567,2.028-.686,3.459-.418,4.2.3.775,1.044,1.193,2.266,1.193a4.137,4.137,0,0,0,3.161-1.372,9.693,9.693,0,0,0,2.058-4.086l3.817-13.778h9.841Zm12.734,6.8h3.489a10.084,10.084,0,0,0,4.742-.805,4.665,4.665,0,0,0,1.909-2.893c.388-1.4.3-2.356-.3-2.893-.567-.537-2-.805-4.324-.805h-3.459Zm-16.313,19.951L-57.6,196.4h13.838a33.519,33.519,0,0,1,7.1.567,8.775,8.775,0,0,1,3.966,1.849,7.518,7.518,0,0,1,2.3,4.235,13.847,13.847,0,0,1-.507,5.964,17.251,17.251,0,0,1-5.9,9.334A16.827,16.827,0,0,1-47.28,221.57h-6.471l-3.1,11.094Zm50.728-11.959a32.83,32.83,0,0,1-4.086,1.253c-2.654.716-4.145,1.67-4.473,2.833a1.829,1.829,0,0,0,.239,1.789,2.374,2.374,0,0,0,1.879.626,6.031,6.031,0,0,0,3.937-1.223,7.7,7.7,0,0,0,2.237-3.907c.089-.388.179-.656.209-.865Zm-2.386,11.959.089-2.535a17.622,17.622,0,0,1-4.831,2.654,15.481,15.481,0,0,1-5.159.865c-2.8,0-4.742-.746-5.875-2.237-1.1-1.461-1.282-3.579-.537-6.293a9.9,9.9,0,0,1,3.877-5.875c1.849-1.253,4.95-2.177,9.3-2.744.537-.089,1.282-.149,2.207-.268,3.221-.358,5.01-1.223,5.4-2.624.209-.775.089-1.342-.388-1.67a4.313,4.313,0,0,0-2.535-.537,4.517,4.517,0,0,0-2.535.656,3.84,3.84,0,0,0-1.521,2.028h-9.6a11.091,11.091,0,0,1,5.308-6.8c2.654-1.551,6.143-2.3,10.5-2.3a22.1,22.1,0,0,1,5.487.6,8.036,8.036,0,0,1,3.549,1.64,4.929,4.929,0,0,1,1.67,2.893,11.892,11.892,0,0,1-.567,4.622l-4.145,14.911a3.365,3.365,0,0,0-.089,1.312,1.458,1.458,0,0,0,.537.924l-.209.746h-9.931Zm9.99,10.557,2.177-7.933h2.833a3.894,3.894,0,0,0,2.207-.537A2.871,2.871,0,0,0-1,232.992a4.5,4.5,0,0,0,.209-1.133,11.919,11.919,0,0,0,0-1.461l-1.521-24.514h9.99l-.149,16.223,8.708-16.223h9.275L10.1,232.515c-1.76,2.982-3.012,5.01-3.817,6.143a12.281,12.281,0,0,1-2.3,2.535,8.369,8.369,0,0,1-3.161,1.7,20.527,20.527,0,0,1-5.249.507c-.686,0-1.461,0-2.3-.06-.805,0-1.7-.06-2.595-.119" fill="#29387e"/>
    </g>
  </g>
</svg>
