<svg xmlns="http://www.w3.org/2000/svg" width="30" height="30" viewBox="0 0 30 30">
  <g id="twitter" transform="translate(-26 -850)">
    <g id="Group_207" data-name="Group 207">
      <g id="Ellipse_40" data-name="Ellipse 40" transform="translate(26 850)" fill="#c50202" stroke="#fff" stroke-width="1">
        <circle cx="15" cy="15" r="15" stroke="none"/>
        <circle cx="15" cy="15" r="14.5" fill="none"/>
      </g>
      <path id="Vector" d="M14.3,1.5a5.513,5.513,0,0,1-1.687.493A3.141,3.141,0,0,0,13.9.237a5.513,5.513,0,0,1-1.859.769,2.936,2.936,0,0,0-.974-.745A2.725,2.725,0,0,0,9.9,0,3.063,3.063,0,0,0,6.968,3.183a3.957,3.957,0,0,0,.072.73A8.128,8.128,0,0,1,1,.582,3.37,3.37,0,0,0,.6,2.189,3.264,3.264,0,0,0,1.907,4.84a2.78,2.78,0,0,1-1.325-.4v.039A3.129,3.129,0,0,0,2.931,7.6a2.871,2.871,0,0,1-.771.108,3.6,3.6,0,0,1-.553-.049A2.977,2.977,0,0,0,4.345,9.865a5.583,5.583,0,0,1-3.637,1.36A5.519,5.519,0,0,1,0,11.186a7.825,7.825,0,0,0,4.5,1.427c5.388,0,8.336-4.848,8.336-9.056,0-.138,0-.276-.009-.414A6.634,6.634,0,0,0,14.3,1.5Z" transform="translate(34 859)" fill="#fff"/>
    </g>
  </g>
</svg>
