<svg xmlns="http://www.w3.org/2000/svg" width="240" height="144" viewBox="0 0 240 144">
  <g id="visa" transform="translate(-375 -4645)">
    <path id="Rectangle_1025" data-name="Rectangle 1025" d="M0,0H240a0,0,0,0,1,0,0V144a0,0,0,0,1,0,0H20A20,20,0,0,1,0,124V0A0,0,0,0,1,0,0Z" transform="translate(375 4645)" fill="#f8f8f8"/>
    <g id="Group_2334" data-name="Group 2334" transform="translate(423.774 4646.481)">
      <path id="Path_3393" data-name="Path 3393" d="M62.935,89.571H53.2l6.083-37.384h9.734ZM45.014,52.187,35.735,77.9l-1.1-5.537v0L31.363,55.553s-.4-3.366-4.617-3.366H11.406l-.18.633a36.411,36.411,0,0,1,10.181,4.273l8.456,32.479H40L55.489,52.187H45.014Zm76.555,37.384h8.937l-7.792-37.385H114.89a4.472,4.472,0,0,0-4.493,2.786l-14.516,34.6h10.146l2.029-5.553h12.373l1.14,5.553Zm-10.71-13.224,5.114-13.99,2.877,13.99ZM96.642,61.177l1.389-8.028a28.093,28.093,0,0,0-8.754-1.63c-4.83,0-16.3,2.111-16.3,12.376,0,9.658,13.462,9.778,13.462,14.851s-12.075,4.164-16.06.965L68.932,88.1a27.276,27.276,0,0,0,10.986,2.111c6.642,0,16.662-3.439,16.662-12.8C96.58,67.7,83,66.792,83,62.566s9.48-3.684,13.645-1.389Z" fill="#2566af"/>
    </g>
  </g>
</svg>
